<svg width="110" height="31" viewBox="0 0 110 31" fill="none" xmlns="http://www.w3.org/2000/svg">
<path d="M15.775 30.8261C7.62643 30.8261 0.998535 24.1316 0.998535 15.9104C0.998535 7.68916 7.62643 0.994629 15.775 0.994629C21.436 0.994629 26.6662 4.32874 29.1099 9.47905L29.6989 10.7162L25.5674 14.8838L22.8161 12.1463L24.9609 9.97916C22.9743 6.84686 19.5021 4.88149 15.775 4.88149C9.77126 4.88149 4.88385 9.83001 4.88385 15.9016C4.88385 21.9732 9.77126 26.9217 15.775 26.9217C19.5021 26.9217 22.9743 24.9563 24.9609 21.824L17.4276 14.2082C16.9881 13.7607 16.3991 13.5151 15.775 13.5151C15.1509 13.5151 14.5708 13.7607 14.1225 14.2082C13.1995 15.1383 13.1995 16.6474 14.1225 17.5774C14.562 18.0249 15.1509 18.2706 15.775 18.2706C16.3991 18.2706 16.9793 18.0249 17.4276 17.5774L18.0957 16.893L20.8558 19.6305L20.179 20.3149C19.0011 21.5082 17.4364 22.1574 15.775 22.1574C14.1137 22.1574 12.549 21.4994 11.3711 20.3149C8.95376 17.8757 8.95376 13.9011 11.3711 11.462C12.549 10.2775 14.1049 9.61943 15.775 9.61943C17.4364 9.61943 19.0011 10.2775 20.179 11.462L29.6989 21.0782L29.1099 22.3154C26.6662 27.492 21.4272 30.8261 15.775 30.8261Z" fill="url(#paint0_linear_21099_12538)"/>
<path d="M55.6587 12.2347C52.0635 12.2347 49.1451 15.1476 49.1451 18.7362C49.1451 22.3247 52.0635 25.2377 55.6587 25.2377C59.254 25.2377 62.1723 22.3247 62.1723 18.7362C62.1723 15.1389 59.2627 12.2347 55.6587 12.2347ZM55.6587 22.3949C53.6282 22.3949 51.9844 20.7542 51.9844 18.7274C51.9844 16.7006 53.6282 15.0599 55.6587 15.0599C57.6893 15.0599 59.3331 16.7006 59.3331 18.7274C59.3331 20.7542 57.6893 22.3949 55.6587 22.3949Z" fill="#4A4A4A"/>
<path d="M44.6267 21.9991C41.2601 21.9991 38.5263 19.2704 38.5263 15.91C38.5263 12.5496 41.2601 9.82087 44.6267 9.82087C46.6661 9.82087 48.4769 10.8211 49.5845 12.3653C50.3141 11.5669 51.1755 10.8913 52.1425 10.3736C50.4371 8.07485 47.7121 6.58328 44.6267 6.58328C39.4668 6.59206 35.2827 10.7597 35.2827 15.91C35.2827 21.0603 39.4668 25.2279 44.618 25.2279C46.1826 25.2279 47.6506 24.8419 48.9428 24.1663C48.3099 23.2977 47.8176 22.315 47.5188 21.2621C46.6573 21.7359 45.6728 21.9991 44.6267 21.9991Z" fill="#4A4A4A"/>
<path d="M67.0692 12.5755H64.1684V25.2363H67.0692V12.5755Z" fill="#4A4A4A"/>
<path d="M84.0746 6.61824V25.2278H87.1688H95.6163V22.1482H87.1688V17.4365H94.6142V14.3481H87.1688V9.67158H95.6163V6.59192H84.0746V6.61824Z" fill="#4A4A4A"/>
<path d="M110 12.1207H106.493L103.812 16.0866L101.148 12.1207H97.6407L102.053 18.6749L97.6056 25.229H101.113L103.794 21.272L106.466 25.229H109.974L105.561 18.6749L110 12.1207Z" fill="#4A4A4A"/>
<path d="M75.5786 11.9433C73.926 11.9433 72.4229 12.5574 71.2801 13.5665L69.065 12.1012V25.2358H71.9042V18.4448C71.9042 16.418 73.548 14.7773 75.5786 14.7773C77.6091 14.7773 79.2529 16.418 79.2529 18.4448V25.2358H82.0922V18.4448C82.0922 14.8562 79.1738 11.9433 75.5786 11.9433Z" fill="#4A4A4A"/>
<path d="M65.6149 10.5842C66.7218 10.5842 67.6191 9.68854 67.6191 8.58371C67.6191 7.47889 66.7218 6.58325 65.6149 6.58325C64.508 6.58325 63.6107 7.47889 63.6107 8.58371C63.6107 9.68854 64.508 10.5842 65.6149 10.5842Z" fill="url(#paint1_linear_21099_12538)"/>
<defs>
<linearGradient id="paint0_linear_21099_12538" x1="29.6904" y1="15.9109" x2="0.999766" y2="15.9109" gradientUnits="userSpaceOnUse">
<stop offset="0.1" stop-color="#00DEC0"/>
<stop offset="1" stop-color="#00C5E5"/>
</linearGradient>
<linearGradient id="paint1_linear_21099_12538" x1="67.6176" y1="8.58653" x2="63.6128" y2="8.58653" gradientUnits="userSpaceOnUse">
<stop stop-color="#00DEC0"/>
<stop offset="0.8" stop-color="#00C5E5"/>
</linearGradient>
</defs>
</svg>
