<svg width="200" height="35" viewBox="0 0 200 35" fill="none" xmlns="http://www.w3.org/2000/svg">
<mask id="mask0_31_485" style="mask-type:luminance" maskUnits="userSpaceOnUse" x="0" y="0" width="200" height="35">
<path d="M200 0H0V34.114H200V0Z" fill="white"/>
</mask>
<g mask="url(#mask0_31_485)">
<path fill-rule="evenodd" clip-rule="evenodd" d="M30.6933 11.2789C30.4776 10.4777 30.0462 9.76891 29.4607 9.18339C26.9029 6.31744 24.53 5.23886 20.6163 7.05704H20.4314C18.9522 7.11868 17.6887 8.16644 17.3189 9.584C15.8705 13.7443 14.3297 17.8429 12.8197 21.9723C12.604 22.2805 12.3882 22.5886 12.1417 22.866C9.36821 24.8999 6.71798 26.8105 2.83508 25.1772C1.41752 24.6225 -0.862912 24.7766 0.338937 27.6426C0.40057 28.0124 0.616287 28.3822 0.924453 28.5979C1.29425 28.9985 1.72569 29.3067 2.18794 29.5532C7.58085 33.0355 13.4668 33.8059 19.1371 31.0632C25.5778 27.9507 30.2927 23.0509 30.755 15.3467C31.0015 14.0216 30.9707 12.6349 30.6933 11.2789Z" fill="#CA312C"/>
</g>
<mask id="mask1_31_485" style="mask-type:luminance" maskUnits="userSpaceOnUse" x="0" y="0" width="200" height="35">
<path d="M200 0H0V34.114H200V0Z" fill="white"/>
</mask>
<g mask="url(#mask1_31_485)">
<path fill-rule="evenodd" clip-rule="evenodd" d="M28.3821 7.2111C28.4129 6.13252 28.5362 5.08475 28.7211 4.00617C29.0601 1.23267 27.55 0.0616374 26.4098 -0.0308125C25.2696 -0.0924458 24.191 0.338983 23.3898 1.14022C22.9584 1.51002 22.8967 2.15717 23.2665 2.61942C23.8212 3.17412 24.2835 3.17412 24.5916 2.00308C25.1155 0.0924513 27.3343 2.00308 27.2727 2.98921C27.1494 4.93066 25.7319 5.67027 24.53 6.4715C23.2974 7.27273 22.0955 7.45763 20.0924 8.1356C19.6302 8.35131 19.5685 9.02928 20.0308 9.30663C20.5547 9.39908 21.0786 9.39908 21.5716 9.30663C23.2049 9.02928 23.698 9.52234 24.2219 11.1556C25.208 10.6626 26.3174 10.5393 27.396 10.7242C28.4745 11.1248 28.4745 11.772 28.8752 12.265C29.1833 12.3883 29.5223 12.1418 29.4915 11.8028C28.7211 10.3544 28.3205 8.81356 28.3821 7.2111Z" fill="#91B949"/>
</g>
<path fill-rule="evenodd" clip-rule="evenodd" d="M48.9677 23.8519C48.6595 23.9135 48.3513 23.9752 48.0432 24.0368C47.7658 24.0368 47.4577 24.0368 47.1495 24.0368C46.6256 24.0368 46.0709 23.9443 45.5778 23.7594C45.1464 23.5745 44.7458 23.2972 44.4068 22.9582C44.0678 22.5884 43.7905 22.157 43.6364 21.6639C43.4515 21.1092 43.359 20.5237 43.359 19.9382C43.359 19.3527 43.4515 18.798 43.6056 18.2433C43.7597 17.781 44.0062 17.3188 44.3452 16.949C44.6533 16.5792 45.054 16.3018 45.5162 16.1169C46.0401 15.9012 46.564 15.8087 47.1187 15.8087C47.735 15.8087 48.3205 15.9012 48.9369 16.0245C49.5532 16.1786 50.1387 16.3635 50.6934 16.6408V13.5899C50.1695 13.4359 49.6456 13.3126 49.0909 13.251C48.3822 13.1585 47.6426 13.0969 46.903 13.1277C45.9168 13.0969 44.9307 13.2818 44.0062 13.6208C42.3113 14.2371 41.017 15.5622 40.3698 17.2571C40.0308 18.1816 39.8459 19.1678 39.8459 20.1539C39.8459 21.14 40 22.1262 40.3082 23.0815C40.8629 24.6839 42.1572 25.9474 43.7905 26.4713C44.715 26.7795 45.6703 26.9336 46.6256 26.9027C47.3344 26.9027 48.0432 26.8719 48.7211 26.7487C49.3991 26.6254 50.0463 26.4405 50.6626 26.194V23.328C50.3852 23.4513 50.1079 23.5437 49.7997 23.6362C49.584 23.6978 49.2758 23.7903 48.9677 23.8519ZM65.054 14.7918C64.4993 14.2063 63.8213 13.7749 63.0817 13.4975C62.2188 13.1893 61.3251 13.0353 60.4315 13.0661C59.4761 13.0661 58.5517 13.2201 57.6888 13.5899C56.9184 13.8981 56.2096 14.3912 55.6241 15.0075C55.0386 15.6547 54.6071 16.3943 54.3298 17.2263C54.0216 18.1508 53.8675 19.1369 53.8675 20.1231C53.8675 21.14 53.9908 22.157 54.299 23.1123C54.5455 23.9135 54.9769 24.6531 55.5624 25.2695C56.1171 25.855 56.7951 26.3172 57.5347 26.5638C58.3976 26.8719 59.2912 26.9952 60.1849 26.9952C61.1402 27.026 62.0956 26.8411 62.9584 26.4713C63.7288 26.1323 64.4376 25.6393 65.0231 25.0229C65.6087 24.3758 66.0401 23.6054 66.3174 22.7733C66.6256 21.8488 66.7797 20.8627 66.7797 19.9074C66.7797 18.9212 66.6256 17.9043 66.3174 16.949C66.0401 16.1477 65.6087 15.4081 65.054 14.7918ZM63.205 21.6331C63.1125 22.1262 62.9276 22.5576 62.6503 22.9582C62.4037 23.328 62.0956 23.6362 61.6949 23.8519C61.2635 24.0676 60.8013 24.1909 60.3082 24.1909C59.4145 24.2525 58.5208 23.8519 57.997 23.1431C57.3806 22.2186 57.0724 21.1092 57.1649 19.9998C57.1649 19.4451 57.2265 18.9212 57.3498 18.3665C57.4423 17.9043 57.6271 17.442 57.9045 17.0414C58.151 16.6716 58.49 16.3635 58.8598 16.1477C59.2912 15.932 59.7843 15.8087 60.2774 15.8087C61.1711 15.7471 62.0647 16.1477 62.5886 16.8565C63.1741 17.781 63.4515 18.8904 63.359 19.969C63.3899 20.5237 63.3282 21.0784 63.205 21.6331ZM73.7442 11.1554C73.9291 11.3403 74.1757 11.4944 74.453 11.5869C74.9769 11.8026 75.5933 11.8026 76.1171 11.5869C76.3637 11.4944 76.5794 11.3403 76.7643 11.1246C76.9492 10.9089 77.0724 10.6624 77.1649 10.4158C77.3806 9.89195 77.3806 9.30643 77.1649 8.81337C77.0724 8.59765 76.9492 8.38193 76.7643 8.19704C76.5794 8.01214 76.3637 7.85805 76.1171 7.73479C75.5933 7.51907 74.9769 7.51907 74.453 7.73479C74.2065 7.85805 73.9908 7.98132 73.8059 8.19704C73.621 8.38193 73.4669 8.62847 73.3745 8.875C73.1587 9.36807 73.1279 9.92277 73.3128 10.4467C73.3745 10.724 73.5285 10.9705 73.7442 11.1554ZM77.0416 13.3434H70.0771V15.8396H73.8367V24.1909H69.5532V26.687H80.8937V24.1909H77.0416V13.3434ZM94.3606 14.3296C94.0216 13.9289 93.5902 13.59 93.0971 13.4051C92.5424 13.1585 91.9261 13.0661 91.3097 13.0661C90.8783 13.0661 90.4161 13.1277 89.9846 13.2202C89.584 13.3126 89.245 13.4667 88.8752 13.6824C88.5362 13.8673 88.1973 14.1138 87.9199 14.3912C87.6117 14.6993 87.3344 15.0075 87.057 15.3157L86.9646 13.3434H84.1911V26.6562H87.396V18.2124C87.8583 17.5653 88.3822 16.949 88.9677 16.4251C89.3991 16.0245 89.9538 15.7779 90.5393 15.7779C91.6179 15.7779 92.1726 16.5175 92.1726 17.9659V26.6562H95.3467V17.7194C95.3467 17.0722 95.2851 16.4251 95.1002 15.7779C94.9769 15.254 94.6996 14.761 94.3606 14.3296ZM109.707 14.8534C109.307 14.2679 108.783 13.8057 108.136 13.4975C107.488 13.1585 106.749 13.0044 106.04 13.0044C105.578 13.0044 105.146 13.0661 104.715 13.1585C104.314 13.251 103.945 13.405 103.606 13.6208C103.267 13.8057 102.958 14.0522 102.65 14.3296C102.342 14.6069 102.065 14.9151 101.818 15.2541L101.726 13.2818H98.9831V31.8026H102.188V26.5946C102.496 26.6562 102.804 26.7178 103.082 26.7487C103.421 26.8103 103.76 26.8103 104.068 26.8103C104.992 26.8103 105.917 26.687 106.811 26.3789C107.612 26.1015 108.382 25.6701 108.998 25.0846C109.646 24.4682 110.139 23.6978 110.447 22.8658C110.817 21.8488 110.971 20.7702 110.971 19.6916C110.971 18.7671 110.878 17.8118 110.632 16.8873C110.478 16.2094 110.17 15.5006 109.707 14.8534ZM107.396 21.7564C107.273 22.2802 107.026 22.7425 106.718 23.1739C106.441 23.5437 106.071 23.8519 105.67 24.0676C105.239 24.2833 104.777 24.4066 104.284 24.4066C103.883 24.4066 103.513 24.3758 103.113 24.3141C102.804 24.2525 102.465 24.1909 102.188 24.0676V18.2433C102.65 17.5961 103.174 17.0106 103.76 16.4559C104.191 16.0553 104.746 15.8087 105.331 15.8087C106.04 15.7779 106.687 16.1477 107.026 16.7641C107.242 17.1647 107.396 17.5961 107.488 18.0584C107.612 18.6747 107.643 19.291 107.643 19.9382C107.612 20.5237 107.55 21.14 107.396 21.7564ZM123.513 14.1755C122.989 13.7749 122.404 13.4975 121.757 13.3126C120.925 13.1277 120.062 13.0353 119.199 13.0353C118.336 13.0353 117.442 13.1277 116.579 13.2818C115.84 13.4359 115.1 13.6208 114.361 13.8981V16.4559C115.069 16.1477 115.809 15.8704 116.579 15.7163C117.35 15.5314 118.12 15.4389 118.891 15.4389C119.322 15.4389 119.753 15.4698 120.154 15.593C120.462 15.6855 120.74 15.8396 120.986 16.0553C121.202 16.2402 121.356 16.4867 121.448 16.7641C121.541 17.0722 121.602 17.3804 121.602 17.6886V18.4898H119.846C118.86 18.4898 117.905 18.5823 116.949 18.798C116.24 18.9829 115.532 19.291 114.915 19.6916C114.422 20.0614 114.022 20.5237 113.744 21.0784C113.467 21.6331 113.344 22.2186 113.344 22.8349C113.344 23.3896 113.436 23.9752 113.621 24.499C113.806 24.9921 114.083 25.4235 114.422 25.7933C114.792 26.1631 115.223 26.4405 115.717 26.6254C116.302 26.8411 116.888 26.9336 117.535 26.9336C117.997 26.9336 118.49 26.8719 118.952 26.7795C119.353 26.687 119.754 26.5329 120.123 26.348C120.493 26.1631 120.832 25.9474 121.14 25.7009C121.448 25.4544 121.757 25.177 122.034 24.8688L122.126 26.6254H124.869V17.5037C124.9 16.8257 124.777 16.1477 124.561 15.5314C124.345 15.0383 123.975 14.5453 123.513 14.1755ZM121.664 22.5576C121.171 23.0815 120.647 23.5437 120.062 23.9443C119.661 24.2525 119.168 24.4066 118.675 24.4374C118.151 24.4682 117.658 24.3141 117.257 24.006C116.888 23.6978 116.703 23.2356 116.733 22.7733C116.733 22.5268 116.795 22.2494 116.888 22.0029C117.011 21.7564 117.196 21.5406 117.411 21.3557C117.689 21.14 117.997 21.0168 118.336 20.9243C118.798 20.801 119.26 20.7394 119.723 20.7702H121.664V22.5576ZM139.23 14.8534C138.829 14.2679 138.305 13.8365 137.689 13.5283C137.042 13.1893 136.333 13.0353 135.593 13.0661C135.131 13.0661 134.7 13.1277 134.268 13.2202C133.868 13.3126 133.467 13.4667 133.097 13.6824C132.758 13.8673 132.419 14.1138 132.142 14.3912C131.834 14.6685 131.556 14.9767 131.31 15.3157L131.217 13.3434H128.444V31.8642H131.649V26.6562C131.957 26.7178 132.234 26.7795 132.542 26.8103C132.881 26.8719 133.22 26.8719 133.559 26.8719C134.484 26.8719 135.408 26.7487 136.302 26.4405C137.134 26.1631 137.874 25.7317 138.49 25.1462C139.137 24.5299 139.63 23.7594 139.938 22.9274C140.308 21.9104 140.493 20.8319 140.462 19.7533C140.462 18.8288 140.37 17.8735 140.123 16.949C139.969 16.2094 139.661 15.5006 139.23 14.8534ZM136.918 21.7564C136.795 22.2802 136.549 22.7425 136.24 23.1739C135.963 23.5437 135.593 23.8519 135.162 24.0676C134.73 24.2833 134.268 24.4066 133.775 24.4066C133.374 24.4066 133.005 24.3758 132.604 24.3141C132.296 24.2525 131.957 24.1909 131.68 24.0676V18.2433C132.142 17.5961 132.666 17.0106 133.251 16.4559C133.683 16.0553 134.237 15.8087 134.823 15.8087C135.532 15.7779 136.179 16.1477 136.518 16.7641C136.733 17.1647 136.888 17.5961 136.949 18.0584C137.072 18.6747 137.134 19.291 137.103 19.9382C137.134 20.5237 137.072 21.14 136.918 21.7564ZM154.083 14.422C153.744 13.9598 153.282 13.6208 152.789 13.3742C152.234 13.1277 151.618 13.0044 151.002 13.0353C150.539 13.0353 150.077 13.0969 149.646 13.1893C149.245 13.2818 148.844 13.4359 148.475 13.6516C148.136 13.8365 147.827 14.083 147.55 14.3604C147.273 14.6377 147.026 14.9459 146.811 15.2849L146.687 13.3434H143.79V26.6562H147.088V18.2124C147.55 17.4728 148.136 16.7949 148.814 16.2402C149.214 15.9012 149.738 15.6855 150.262 15.6547C150.508 15.6547 150.755 15.7163 150.971 15.8087C151.186 15.932 151.371 16.0861 151.495 16.3018C151.649 16.5483 151.772 16.8565 151.803 17.1647C151.864 17.5961 151.895 17.9967 151.864 18.4282H155.1C155.131 17.6577 155.039 16.8565 154.884 16.1169C154.73 15.5314 154.484 14.9459 154.083 14.422ZM162.311 11.1554C162.496 11.3403 162.712 11.4944 162.958 11.6177C163.482 11.8334 164.099 11.8334 164.623 11.6177C164.869 11.5252 165.085 11.3712 165.27 11.1554C165.455 10.9705 165.609 10.7548 165.701 10.5083C165.917 9.9844 165.917 9.39889 165.701 8.90582C165.609 8.65929 165.455 8.44357 165.27 8.22785C165.085 8.04295 164.869 7.88887 164.623 7.7656C164.099 7.54989 163.482 7.54989 162.958 7.7656C162.712 7.88887 162.496 8.01214 162.311 8.22785C162.126 8.41275 161.972 8.65929 161.88 8.90582C161.664 9.42971 161.664 10.0152 161.88 10.5083C161.972 10.7548 162.126 10.9705 162.311 11.1554ZM165.639 13.3434H158.613V15.8396H162.373V24.1909H158.182V26.687H169.522V24.1909H165.67L165.639 13.3434ZM184.807 13.3434H180.801L176.148 18.9829V8.13541H172.943V26.687H176.148V20.0306L181.079 26.687H185.27L179.445 19.4143L184.807 13.3434ZM198.336 15.593C198.12 15.0383 197.781 14.5761 197.319 14.1755C196.795 13.7749 196.21 13.4975 195.562 13.3126C194.73 13.1277 193.868 13.0353 193.005 13.0353C192.142 13.0353 191.248 13.1277 190.416 13.2818C189.676 13.4359 188.937 13.6208 188.197 13.8981V16.4559C188.906 16.1169 189.646 15.8704 190.416 15.7163C191.186 15.5314 191.957 15.4389 192.727 15.4389C193.159 15.4389 193.59 15.4698 193.991 15.593C194.299 15.6855 194.576 15.8396 194.823 16.0553C195.039 16.2402 195.193 16.4867 195.285 16.7641C195.378 17.0722 195.439 17.3804 195.439 17.6886V18.4898H193.683C192.727 18.4898 191.741 18.5823 190.817 18.798C190.077 18.9829 189.399 19.291 188.783 19.6916C188.29 20.0614 187.889 20.5237 187.612 21.0784C187.334 21.6331 187.211 22.2186 187.211 22.8349C187.211 23.3896 187.304 23.9752 187.488 24.499C187.673 24.9921 187.92 25.4235 188.29 25.7933C188.66 26.1631 189.091 26.4405 189.584 26.6254C190.17 26.8411 190.786 26.9336 191.402 26.9336C191.895 26.9336 192.358 26.8719 192.82 26.7795C193.22 26.687 193.621 26.5329 193.991 26.348C194.361 26.1631 194.7 25.9474 195.008 25.7009C195.316 25.4544 195.624 25.177 195.901 24.8688L195.994 26.6254H198.737V17.5037C198.706 16.8873 198.613 16.2094 198.336 15.593ZM195.47 22.5576C195.008 23.0815 194.453 23.5437 193.898 23.9443C193.498 24.2525 193.005 24.4066 192.512 24.4374C191.988 24.4682 191.495 24.3141 191.094 24.006C190.724 23.6978 190.539 23.2356 190.57 22.7733C190.57 22.5268 190.632 22.2494 190.724 22.0029C190.848 21.7564 191.032 21.5406 191.248 21.3557C191.525 21.14 191.834 21.0168 192.173 20.9243C192.635 20.801 193.066 20.7394 193.529 20.7702H195.47V22.5576Z" fill="white"/>
</svg>
