<?xml version="1.0" encoding="UTF-8" standalone="no" ?>
<!DOCTYPE svg PUBLIC "-//W3C//DTD SVG 1.1//EN" "http://www.w3.org/Graphics/SVG/1.1/DTD/svg11.dtd">
<svg xmlns="http://www.w3.org/2000/svg" xmlns:xlink="http://www.w3.org/1999/xlink" version="1.1" width="1024" height="300" viewBox="0 0 1024 300" xml:space="preserve">
<desc>Created with Fabric.js 5.2.4</desc>
<defs>
</defs>
<g transform="matrix(1 0 0 1 512 150)" id="492f26e9-1971-4024-be55-50442afd5b29"  >
<rect style="stroke: none; stroke-width: 1; stroke-dasharray: none; stroke-linecap: butt; stroke-dashoffset: 0; stroke-linejoin: miter; stroke-miterlimit: 4; fill: rgb(255,255,255); fill-rule: nonzero; opacity: 1; visibility: hidden;" vector-effect="non-scaling-stroke"  x="-512" y="-150" rx="0" ry="0" width="1024" height="300" />
</g>
<g transform="matrix(Infinity NaN NaN Infinity 0 0)" id="8ea56f53-0700-4dce-a72c-87f20b42d9be"  >
</g>
<g transform="matrix(1.63 0 0 1.63 512 150)" id="1c4761e7-a840-45f2-8a1d-8339a6836ad2"  >
<path style="stroke: rgb(0,0,0); stroke-width: 0; stroke-dasharray: none; stroke-linecap: butt; stroke-dashoffset: 0; stroke-linejoin: miter; stroke-miterlimit: 4; fill: rgb(255,255,255); fill-rule: nonzero; opacity: 1;" vector-effect="non-scaling-stroke"  transform=" translate(-320.25, -321.5)" d="M 108.6 331.6 C 106.8 332.70000000000005 104.69999999999999 332.90000000000003 103.1 332 C 101.1 330.8 99.89999999999999 328.1 99.89999999999999 324.4 L 99.89999999999999 313.09999999999997 C 99.89999999999999 307.7 97.8 303.79999999999995 94.19999999999999 302.79999999999995 C 88.1 300.99999999999994 83.49999999999999 308.49999999999994 81.79999999999998 311.29999999999995 L 71 328.6 L 71 307.3 C 70.9 302.40000000000003 69.3 299.5 66.3 298.6 C 64.3 298 61.3 298.3 58.4 302.70000000000005 L 34.3 341.30000000000007 C 31.099999999999998 335.20000000000005 29.4 328.4000000000001 29.4 321.50000000000006 C 29.4 298.20000000000005 48.099999999999994 279.30000000000007 71 279.30000000000007 C 93.9 279.30000000000007 112.6 298.20000000000005 112.6 321.50000000000006 C 112.6 321.50000000000006 112.6 321.6000000000001 112.6 321.6000000000001 C 112.6 321.6000000000001 112.6 321.7000000000001 112.6 321.7000000000001 C 112.8 326.2 111.4 329.8 108.6 331.6 L 108.6 331.6 z M 121.8 321.5 L 121.8 321.5 L 121.8 321.4 L 121.8 321.29999999999995 C 121.7 292.99999999999994 98.9 269.9 71 269.9 C 43 269.9 20.200000000000003 293 20.200000000000003 321.5 C 20.200000000000003 349.9 43 373.1 71 373.1 C 83.9 373.1 96.1 368.20000000000005 105.5 359.3 C 107.4 357.5 107.5 354.6 105.7 352.7 C 104 350.8 101.10000000000001 350.7 99.2 352.4 C 99.2 352.4 99.2 352.4 99.10000000000001 352.5 C 91.50000000000001 359.7 81.30000000000001 363.8 70.80000000000001 363.8 C 58.500000000000014 363.8 47.500000000000014 358.40000000000003 39.90000000000001 349.8 L 61.60000000000001 315 L 61.60000000000001 331.1 C 61.60000000000001 338.8 64.60000000000001 341.3 67.10000000000001 342 C 69.60000000000001 342.7 73.4 342.2 77.50000000000001 335.7 L 89.40000000000002 316.4 C 89.80000000000003 315.79999999999995 90.10000000000002 315.2 90.50000000000001 314.79999999999995 L 90.50000000000001 324.59999999999997 C 90.50000000000001 331.79999999999995 93.40000000000002 337.59999999999997 98.40000000000002 340.4 C 102.90000000000002 343 108.60000000000002 342.7 113.30000000000003 339.79999999999995 C 119.1 336 122.2 329.4 121.8 321.5 z M 192.6 303.9 C 193.79999999999998 304.59999999999997 194.9 306.29999999999995 194.9 307.79999999999995 C 194.9 310.19999999999993 192.9 312.19999999999993 190.6 312.19999999999993 C 190 312.19999999999993 189.5 311.99999999999994 189 311.8999999999999 C 186.3 309.8999999999999 182.9 308.5999999999999 179.3 308.5999999999999 C 170.8 308.5999999999999 165 315.4999999999999 165 324.0999999999999 C 165 332.69999999999993 170.9 339.4999999999999 179.3 339.4999999999999 C 183.5 339.4999999999999 187.3 337.7999999999999 190.10000000000002 335.0999999999999 C 190.8 334.5999999999999 191.70000000000002 334.2999999999999 192.60000000000002 334.2999999999999 C 194.90000000000003 334.2999999999999 196.70000000000002 336.0999999999999 196.70000000000002 338.3999999999999 C 196.70000000000002 339.8999999999999 195.8 341.19999999999993 194.70000000000002 341.8999999999999 C 190.60000000000002 345.3999999999999 185.10000000000002 347.69999999999993 179.4 347.69999999999993 C 166.4 347.69999999999993 155.8 336.99999999999994 155.8 323.79999999999995 C 155.8 310.59999999999997 166.4 299.9 179.4 299.9 C 184.2 299.8 188.8 301.3 192.6 303.9 z M 216.4 313.9 C 225.3 313.9 232.70000000000002 321.4 232.70000000000002 330.7 C 232.70000000000002 339.9 225.20000000000002 347.8 216.4 347.8 C 207.1 347.8 199.4 340 199.4 330.7 C 199.4 321.4 207.1 313.9 216.4 313.9 z M 216.3 339.5 C 220.20000000000002 339.5 223.5 335.8 223.5 330.8 C 223.5 325.8 220.2 322.6 216.3 322.6 C 212.10000000000002 322.6 208.60000000000002 325.70000000000005 208.60000000000002 330.8 C 208.6 335.7 212.1 339.5 216.3 339.5 z M 238.3 342.6 L 238.3 319 C 238.3 316.4 240.3 314.3 242.9 314.3 C 245.4 314.3 247.5 316.40000000000003 247.5 319 L 247.5 342.6 C 247.5 345.20000000000005 245.4 347.3 242.9 347.3 C 240.4 347.3 238.3 345.1 238.3 342.6 z M 237.6 305.4 C 237.6 302.29999999999995 240 299.9 242.9 299.9 C 245.9 299.9 248.3 302.4 248.3 305.4 C 248.3 308.4 245.9 310.79999999999995 242.9 310.79999999999995 C 239.9 310.7 237.6 308.3 237.6 305.4 z M 265.1 329.8 L 265.1 342.6 C 265.1 345.20000000000005 263 347.3 260.5 347.3 C 258 347.3 255.9 345.2 255.9 342.6 L 255.9 317.90000000000003 C 255.9 315.90000000000003 257.5 314.3 259.5 314.3 C 261.5 314.3 263 316 263 317.90000000000003 C 266.7 314.40000000000003 270 313.90000000000003 273.1 313.90000000000003 C 282.3 313.90000000000003 286.40000000000003 320.8 286.40000000000003 328.70000000000005 L 286.40000000000003 342.6 C 286.40000000000003 345.20000000000005 284.3 347.3 281.8 347.3 C 279.3 347.3 277.2 345.2 277.2 342.6 L 277.2 329.8 C 277.2 325.8 276.7 322.40000000000003 270.9 322.40000000000003 C 266.8 322.4 265.1 325.8 265.1 329.8 L 265.1 329.8 z M 316.2 334.7 C 315.09999999999997 334.7 314.4 334.2 313.8 333.5 L 303.1 321.9 L 303.1 342.59999999999997 C 303.1 345.2 301 347.29999999999995 298.5 347.29999999999995 C 296 347.29999999999995 293.9 345.19999999999993 293.9 342.59999999999997 L 293.9 301.59999999999997 C 294.2 300.9 294.9 300.4 295.59999999999997 300.4 C 296.4 300.4 297.09999999999997 301.09999999999997 297.59999999999997 301.59999999999997 L 314.7 320.79999999999995 C 315.2 321.4 315.8 321.69999999999993 316.2 321.69999999999993 C 316.5 321.69999999999993 317.2 321.3999999999999 317.7 320.79999999999995 L 334.8 301.59999999999997 C 335.3 301.09999999999997 335.90000000000003 300.4 336.8 300.4 C 337.6 300.4 338.3 300.9 338.5 301.59999999999997 L 338.5 342.59999999999997 C 338.5 345.2 336.5 347.29999999999995 333.9 347.29999999999995 C 331.4 347.29999999999995 329.29999999999995 345.19999999999993 329.29999999999995 342.59999999999997 L 329.29999999999995 321.9 L 318.59999999999997 333.5 C 317.8 334.2 317.1 334.7 316.2 334.7 L 316.2 334.7 z M 360.4 339.5 C 364.5 339.5 368 335.8 368 330.8 C 368 325.8 364.4 322.5 360.4 322.5 C 356.4 322.5 353.09999999999997 325.9 353.09999999999997 330.8 C 353.1 335.6 356.3 339.5 360.4 339.5 z M 370.2 343.7 L 370 342.59999999999997 C 368.2 346.09999999999997 362.5 347.7 358.9 347.7 C 350.29999999999995 347.7 343.9 339.9 343.9 330.59999999999997 C 343.9 321.4 350.4 313.79999999999995 359.4 313.79999999999995 C 360.9 313.79999999999995 366.09999999999997 314.19999999999993 370.09999999999997 318.9 L 370.29999999999995 317.79999999999995 C 370.29999999999995 315.79999999999995 371.79999999999995 314.19999999999993 373.79999999999995 314.19999999999993 C 375.79999999999995 314.19999999999993 377.4 315.8999999999999 377.4 317.79999999999995 L 377.4 343.59999999999997 C 377.4 345.59999999999997 375.79999999999995 347.2 373.79999999999995 347.2 C 371.7 347.3 370.2 345.6 370.2 343.7 L 370.2 343.7 z M 402.7 322.4 L 401.7 322.4 C 395.9 322.7 394.8 326 394.8 329.79999999999995 L 394.8 342.59999999999997 C 394.8 345.2 392.7 347.29999999999995 390.2 347.29999999999995 C 387.7 347.29999999999995 385.59999999999997 345.19999999999993 385.59999999999997 342.59999999999997 L 385.59999999999997 317.9 C 385.59999999999997 315.9 387.2 314.29999999999995 389.2 314.29999999999995 C 391.2 314.29999999999995 392.7 315.99999999999994 392.7 317.9 C 396.09999999999997 314.7 398.9 314 401.7 313.9 L 402.59999999999997 313.9 C 404.79999999999995 313.9 406.79999999999995 315.79999999999995 406.79999999999995 318.2 C 406.9 320.4 404.9 322.4 402.7 322.4 L 402.7 322.4 z M 438.2 340.4 C 438.59999999999997 341.09999999999997 438.9 341.79999999999995 438.9 342.59999999999997 C 438.9 344.99999999999994 436.7 347.2 434.29999999999995 347.2 C 432.69999999999993 347.2 431.29999999999995 346 430.19999999999993 344.59999999999997 L 419.5999999999999 332.29999999999995 L 419.5999999999999 342.49999999999994 C 419.5999999999999 345.09999999999997 417.4999999999999 347.19999999999993 414.9999999999999 347.19999999999993 C 412.4999999999999 347.19999999999993 410.39999999999986 345.0999999999999 410.39999999999986 342.49999999999994 L 410.39999999999986 304.99999999999994 C 410.39999999999986 302.3999999999999 412.39999999999986 300.29999999999995 414.9999999999999 300.29999999999995 C 417.5999999999999 300.29999999999995 419.5999999999999 302.4 419.5999999999999 304.99999999999994 L 419.5999999999999 328.3999999999999 L 430.19999999999993 316.69999999999993 C 431.29999999999995 315.49999999999994 432.5999999999999 314.19999999999993 434.19999999999993 314.19999999999993 C 436.49999999999994 314.19999999999993 438.5999999999999 316.29999999999995 438.5999999999999 318.69999999999993 C 438.5999999999999 319.3999999999999 438.3999999999999 320.19999999999993 437.9999999999999 320.79999999999995 L 429.5999999999999 329.99999999999994 L 438.2 340.4 L 438.2 340.4 z M 456.2 322.5 C 453.7 322.5 449.59999999999997 323.8 449.59999999999997 327.7 L 462.9 327.7 C 462.8 323.8 458.6 322.5 456.2 322.5 L 456.2 322.5 z M 468.2 333.6 L 449.59999999999997 333.6 C 449.59999999999997 339.1 454.9 340 457.2 340 C 458.9 340 461.3 339.7 463.2 338.8 C 463.8 338.40000000000003 464.7 338.1 465.59999999999997 338.1 C 467.59999999999997 338.1 469.29999999999995 339.8 469.29999999999995 341.90000000000003 C 469.29999999999995 343.3 468.4 344.50000000000006 467.29999999999995 345.20000000000005 C 464.49999999999994 347.30000000000007 460.79999999999995 347.80000000000007 457.29999999999995 347.80000000000007 C 447.99999999999994 347.80000000000007 440.29999999999995 342.80000000000007 440.29999999999995 331.1000000000001 C 440.29999999999995 321.9000000000001 444.99999999999994 313.9000000000001 455.99999999999994 313.9000000000001 C 464.8999999999999 313.9000000000001 471.59999999999997 319.7000000000001 471.79999999999995 330.0000000000001 C 471.8 331.9 470.2 333.6 468.2 333.6 L 468.2 333.6 z M 493.8 347.7 L 491.3 347.7 C 484.3 347.7 480.2 344.59999999999997 480.2 333.7 L 480.2 322.4 L 477.8 322.4 C 475.6 322.4 473.7 320.4 473.7 318.2 C 473.7 315.8 475.7 313.9 477.8 313.9 L 480.2 313.9 L 480.2 305.2 C 480.2 302.59999999999997 482.2 300.5 484.8 300.5 C 487.3 300.5 489.40000000000003 302.6 489.40000000000003 305.2 L 489.40000000000003 313.9 L 493.20000000000005 313.9 C 495.40000000000003 313.9 497.30000000000007 315.79999999999995 497.30000000000007 318.2 C 497.30000000000007 320.4 495.30000000000007 322.4 493.20000000000005 322.4 L 489.40000000000003 322.4 L 489.40000000000003 331.9 C 489.40000000000003 338.2 489.70000000000005 339.5 492.50000000000006 339.5 L 493.80000000000007 339.5 C 496.00000000000006 339.5 497.9000000000001 341.3 497.9000000000001 343.6 C 497.9 345.8 496 347.7 493.8 347.7 L 493.8 347.7 z M 538.3 303.9 C 539.5 304.59999999999997 540.5999999999999 306.29999999999995 540.5999999999999 307.79999999999995 C 540.5999999999999 310.19999999999993 538.5999999999999 312.19999999999993 536.3 312.19999999999993 C 535.6999999999999 312.19999999999993 535.1999999999999 311.99999999999994 534.6999999999999 311.8999999999999 C 531.9999999999999 309.8999999999999 528.5999999999999 308.5999999999999 524.9999999999999 308.5999999999999 C 516.4999999999999 308.5999999999999 510.6999999999999 315.4999999999999 510.6999999999999 324.0999999999999 C 510.6999999999999 332.69999999999993 516.5999999999999 339.4999999999999 524.9999999999999 339.4999999999999 C 529.1999999999999 339.4999999999999 532.9999999999999 337.7999999999999 535.7999999999998 335.0999999999999 C 536.4999999999999 334.5999999999999 537.3999999999999 334.2999999999999 538.2999999999998 334.2999999999999 C 540.5999999999998 334.2999999999999 542.3999999999999 336.0999999999999 542.3999999999999 338.3999999999999 C 542.3999999999999 339.8999999999999 541.4999999999999 341.19999999999993 540.3999999999999 341.8999999999999 C 536.2999999999998 345.3999999999999 530.7999999999998 347.69999999999993 525.0999999999999 347.69999999999993 C 512.0999999999999 347.69999999999993 501.4999999999999 336.99999999999994 501.4999999999999 323.79999999999995 C 501.4999999999999 310.59999999999997 512.0999999999999 299.9 525.0999999999999 299.9 C 529.9 299.8 534.6 301.3 538.3 303.9 L 538.3 303.9 z M 561.6 339.5 C 565.7 339.5 569.2 335.8 569.2 330.8 C 569.2 325.8 565.6 322.5 561.6 322.5 C 557.5 322.5 554.3000000000001 325.9 554.3000000000001 330.8 C 554.3 335.6 557.6 339.5 561.6 339.5 L 561.6 339.5 z M 571.4 343.7 L 571.1999999999999 342.59999999999997 C 569.4 346.09999999999997 563.6999999999999 347.7 560.0999999999999 347.7 C 551.4999999999999 347.7 545.0999999999999 339.9 545.0999999999999 330.59999999999997 C 545.0999999999999 321.4 551.5999999999999 313.79999999999995 560.5999999999999 313.79999999999995 C 562.0999999999999 313.79999999999995 567.3 314.19999999999993 571.3 318.9 L 571.5 317.79999999999995 C 571.5 315.79999999999995 573 314.19999999999993 575 314.19999999999993 C 577 314.19999999999993 578.6 315.8999999999999 578.6 317.79999999999995 L 578.6 343.59999999999997 C 578.6 345.59999999999997 577 347.2 575 347.2 C 572.9 347.3 571.4 345.6 571.4 343.7 z M 603.7 339.5 C 607.8000000000001 339.5 611 335.6 611 330.8 C 611 325.8 607.7 322.5 603.7 322.5 C 599.6 322.5 596.1 325.8 596.1 330.8 C 596.1 335.8 599.6 339.5 603.7 339.5 z M 596.1 345 L 596.1 356.7 C 596.1 359.3 594 361.4 591.5 361.4 C 589 361.4 586.9 359.29999999999995 586.9 356.7 L 586.9 317.9 C 586.9 315.9 588.5 314.29999999999995 590.5 314.29999999999995 C 592.5 314.29999999999995 594 315.99999999999994 594 318.29999999999995 C 597.4 314.79999999999995 601.6 313.9 604.8 313.9 C 613.6999999999999 313.9 620.3 321.4 620.3 330.7 C 620.3 339.9 614 347.8 605.3 347.8 C 602.6 347.7 598.6 346.9 596.1 345 L 596.1 345 z" stroke-linecap="round" />
</g>
</svg>