<svg width="35" height="35" viewBox="0 0 35 35" fill="none" xmlns="http://www.w3.org/2000/svg">
<path d="M10.5362 18.6522C10.6909 18.6522 10.8393 18.5907 10.9487 18.4813C11.0581 18.3719 11.1195 18.2235 11.1195 18.0688V16.0761C11.1195 15.5091 11.4229 14.9747 11.9094 14.6819L14.0875 13.3752L15.2449 14.8219C15.2962 14.8859 15.3605 14.9384 15.4334 14.976C15.5064 15.0136 15.5864 15.0354 15.6684 15.0401L15.6999 15.0412C15.8539 15.0412 16.0032 14.9794 16.1129 14.8709L16.9482 14.0355V18.07C16.9482 18.2247 17.0097 18.3731 17.1191 18.4825C17.2285 18.5919 17.3768 18.6533 17.5315 18.6533C17.6863 18.6533 17.8346 18.5919 17.944 18.4825C18.0534 18.3731 18.1149 18.2247 18.1149 18.07V14.0157L18.9689 14.8709C19.0786 14.9801 19.2271 15.0414 19.3819 15.0412L19.4134 15.0401C19.4954 15.0359 19.5756 15.0142 19.6486 14.9766C19.7216 14.939 19.7858 14.8862 19.8369 14.8219L20.9919 13.3787L23.163 14.6819C23.6507 14.9747 23.9529 15.5091 23.9529 16.0761V18.0688C23.9529 18.2235 24.0143 18.3719 24.1237 18.4813C24.2331 18.5907 24.3815 18.6522 24.5362 18.6522C24.6909 18.6522 24.8393 18.5907 24.9487 18.4813C25.0581 18.3719 25.1195 18.2235 25.1195 18.0688V16.0761C25.1195 15.1007 24.6004 14.1837 23.7639 13.6809L21.231 12.1607L20.2942 11.1211C20.237 11.0581 20.1577 11.0336 20.083 11.0021V10.1236C20.5156 9.75856 20.8636 9.30383 21.1029 8.79092C21.3422 8.278 21.4672 7.71918 21.469 7.15318V5.79631L22.0512 3.10473C22.1019 2.82776 22.0967 2.54343 22.0358 2.26851C21.9748 1.99359 21.8595 1.73366 21.6965 1.50402C21.5356 1.27386 21.3301 1.07833 21.0922 0.929031C20.8544 0.779729 20.589 0.679687 20.3117 0.634831L16.688 0.029314C16.3887 -0.0215318 16.0819 -0.00609299 15.7892 0.074541C15.4965 0.155175 15.2251 0.29904 14.994 0.495993C14.6494 0.788062 14.4094 1.18456 14.3104 1.62536C13.8656 1.75919 13.4885 2.05751 13.2559 2.45959C13.0234 2.86168 12.9528 3.33729 13.0585 3.78959L13.6104 5.80565V7.15318C13.6126 7.7358 13.745 8.31055 13.9979 8.8354C14.2508 9.36025 14.6179 9.82191 15.0722 10.1866V10.9625C14.9641 10.9875 14.8656 11.0435 14.7887 11.1235L13.8624 12.1513L11.3085 13.6832C10.8961 13.9326 10.5547 14.284 10.3173 14.7034C10.0799 15.1229 9.9544 15.5964 9.95288 16.0784V18.0712C9.9535 18.2255 10.0152 18.3732 10.1246 18.4821C10.2339 18.591 10.3819 18.6522 10.5362 18.6522ZM19.334 13.5829L18.5372 12.7872L19.7179 12.2248L20.09 12.6378L19.334 13.5829ZM14.3255 2.9589C14.387 2.88216 14.4649 2.82027 14.5536 2.77785C14.6423 2.73543 14.7394 2.71357 14.8377 2.71389C15.1597 2.71389 15.421 2.41288 15.421 2.09087C15.4213 1.95663 15.4507 1.82405 15.5073 1.7023C15.5638 1.58055 15.6462 1.47255 15.7486 1.38577C15.851 1.29899 15.9711 1.23552 16.1004 1.19973C16.2298 1.16394 16.3654 1.1567 16.4979 1.17851L20.1215 1.78403C20.2461 1.80406 20.3654 1.84899 20.4723 1.91614C20.5791 1.9833 20.6713 2.07129 20.7434 2.17487C20.8927 2.38605 20.9499 2.64155 20.9079 2.87723L20.5754 4.41261L20.3 4.07076C20.2454 4.00265 20.1761 3.94769 20.0974 3.90993C20.0186 3.87217 19.9324 3.85257 19.845 3.85259H15.2332C15.1457 3.85246 15.0594 3.87212 14.9806 3.91011C14.9018 3.94809 14.8326 4.00342 14.7782 4.07193L14.4562 4.47327L14.1925 3.51308C14.1719 3.41664 14.1732 3.3168 14.1962 3.2209C14.2192 3.125 14.2634 3.03548 14.3255 2.9589ZM14.7782 5.93515L15.5144 5.01929H19.5674L20.3035 5.93398V7.15202C20.3035 8.67573 19.0634 9.91476 17.5409 9.91476C16.0184 9.91476 14.7794 8.67456 14.7794 7.15202L14.7782 5.93515ZM17.5397 11.0803C18.0262 11.0803 18.4859 10.98 18.9164 10.8178V11.316L17.542 11.9705L16.24 11.351V10.8435C16.6484 10.987 17.0824 11.0803 17.5397 11.0803ZM15.365 12.2248L16.5457 12.7872L15.7489 13.584L14.9929 12.6378L15.365 12.2248Z" fill="url(#paint0_linear_27_387)"/>
<path d="M12.0225 15.5861C11.9659 15.6377 11.92 15.6999 11.8874 15.7693C11.8549 15.8386 11.8364 15.9137 11.8329 15.9902C11.8294 16.0667 11.8411 16.1432 11.8672 16.2152C11.8934 16.2872 11.9334 16.3533 11.9852 16.4098L12.446 16.9162C12.7202 17.2148 12.8707 17.6033 12.8707 18.0689C12.8707 18.3909 13.132 18.623 13.454 18.623C13.776 18.623 14.0373 18.3337 14.0373 18.0117C14.0373 17.3117 13.7772 16.6431 13.307 16.1298L12.8462 15.6246C12.7948 15.5678 12.7326 15.5216 12.6633 15.4889C12.594 15.4562 12.5189 15.4375 12.4423 15.4339C12.3658 15.4303 12.2893 15.4419 12.2172 15.4681C12.1452 15.4942 12.079 15.5343 12.0225 15.5861ZM22.2227 15.6235L21.7618 16.1286C21.2814 16.6595 21.0203 17.3529 21.0315 18.0689C21.0315 18.3909 21.2928 18.623 21.6148 18.623C21.9368 18.623 22.1982 18.3337 22.1982 18.0117C22.1982 17.6045 22.3487 17.216 22.6228 16.9162L23.0837 16.411C23.1354 16.3545 23.1755 16.2884 23.2016 16.2164C23.2277 16.1444 23.2394 16.0679 23.2359 15.9914C23.2325 15.9149 23.2139 15.8398 23.1814 15.7704C23.1489 15.7011 23.103 15.6389 23.0463 15.5873C22.99 15.5353 22.9239 15.495 22.852 15.4687C22.78 15.4424 22.7035 15.4306 22.627 15.434C22.5504 15.4373 22.4753 15.4558 22.4059 15.4883C22.3365 15.5208 22.2742 15.5668 22.2227 15.6235ZM23.3695 29.7499C23.4967 29.749 23.6201 29.7067 23.7211 29.6293C23.822 29.552 23.895 29.4438 23.9289 29.3212C23.9628 29.1986 23.9558 29.0683 23.909 28.9501C23.8621 28.8318 23.778 28.7321 23.6693 28.666L18.1195 25.3362V20.4163C18.1195 20.2615 18.058 20.1132 17.9486 20.0038C17.8392 19.8944 17.6909 19.8329 17.5362 19.8329C17.3815 19.8329 17.2331 19.8944 17.1237 20.0038C17.0143 20.1132 16.9528 20.2615 16.9528 20.4163V25.3362L11.403 28.666C11.3373 28.7054 11.2799 28.7573 11.2343 28.8188C11.1886 28.8804 11.1555 28.9503 11.1369 29.0246C11.1183 29.0989 11.1145 29.1762 11.1257 29.252C11.1369 29.3278 11.163 29.4006 11.2023 29.4663C11.2417 29.5321 11.2936 29.5894 11.3552 29.6351C11.4167 29.6807 11.4866 29.7138 11.5609 29.7324C11.6353 29.7511 11.7125 29.7549 11.7883 29.7437C11.8641 29.7324 11.9369 29.7064 12.0027 29.667L17.5362 26.3466L23.0697 29.667C23.16 29.7218 23.2638 29.7505 23.3695 29.7499ZM10.052 30.5817L7.85517 29.758V28.7663C8.14817 28.4909 8.3818 28.1586 8.5417 27.7896C8.7016 27.4206 8.78439 27.0229 8.785 26.6208V25.5206L9.33683 23.4975C9.37832 23.2716 9.3743 23.0396 9.32502 22.8152C9.27574 22.5909 9.18219 22.3786 9.04983 22.1908C8.91809 22.0018 8.74972 21.8412 8.55472 21.7186C8.35972 21.5959 8.14206 21.5137 7.91467 21.4768L5.201 21.0241C4.78532 20.9555 4.35893 21.0425 4.00336 21.2685C3.64779 21.4945 3.388 21.8436 3.27367 22.2491C3.0147 22.3437 2.78641 22.5071 2.61333 22.7217C2.32517 23.0798 2.21433 23.5407 2.34383 24.0925L2.85717 25.3222V26.6208C2.85717 27.4771 3.22817 28.2436 3.81033 28.7862V29.758L1.61467 30.5817C1.14161 30.7614 0.734098 31.0802 0.445854 31.4961C0.157609 31.9121 0.00216135 32.4056 0 32.9116V34.4167C0 34.5714 0.0614577 34.7197 0.170854 34.8291C0.28025 34.9385 0.428624 35 0.583333 35C0.738043 35 0.886416 34.9385 0.995813 34.8291C1.10521 34.7197 1.16667 34.5714 1.16667 34.4167V32.9116C1.16667 32.3633 1.512 31.8662 2.02417 31.6726L4.10783 30.8909C4.4625 31.4754 5.10067 31.8721 5.83333 31.8721C6.566 31.8721 7.203 31.4766 7.55767 30.8909L9.6425 31.6726C10.1547 31.8674 10.5 32.3644 10.5 32.9116V34.4167C10.5 34.5714 10.5615 34.7197 10.6709 34.8291C10.7802 34.9385 10.9286 35 11.0833 35C11.238 35 11.3864 34.9385 11.4958 34.8291C11.6052 34.7197 11.6667 34.5714 11.6667 34.4167V32.9116C11.6667 31.8814 11.018 30.9446 10.052 30.5817ZM4.02267 26.6219V25.7481C4.0285 25.7399 4.03783 25.7364 4.04367 25.7271L4.4275 25.0539H7.23333L7.61833 25.6186V26.6219C7.61833 27.6136 6.81217 28.4198 5.8205 28.4198C4.82883 28.4198 4.02267 27.6125 4.02267 26.6219ZM3.521 23.4555C3.55323 23.4151 3.59425 23.3825 3.64095 23.3603C3.68764 23.338 3.73878 23.3267 3.7905 23.3272C4.1125 23.3272 4.37383 23.0367 4.37383 22.7147C4.37331 22.6355 4.3903 22.5572 4.42358 22.4854C4.45686 22.4136 4.50561 22.3501 4.56633 22.2993C4.62672 22.2477 4.69777 22.21 4.77442 22.189C4.85106 22.168 4.93139 22.1643 5.00967 22.178L7.72333 22.6307C7.79778 22.6427 7.86901 22.6697 7.93276 22.71C7.99652 22.7503 8.05147 22.8031 8.09433 22.8652C8.17388 22.9739 8.2112 23.1078 8.19933 23.242L7.97067 24.0785C7.91622 24.0189 7.8499 23.9712 7.77597 23.9387C7.70203 23.9061 7.62211 23.8894 7.54133 23.8895H4.088C3.99531 23.8893 3.90392 23.9114 3.8215 23.9538C3.73909 23.9962 3.66805 24.0578 3.61433 24.1334L3.451 23.7495C3.43953 23.6984 3.43987 23.6454 3.452 23.5944C3.46413 23.5435 3.48773 23.496 3.521 23.4555ZM5.83333 30.7066C5.60622 30.7066 5.38841 30.6163 5.22781 30.4557C5.06722 30.2951 4.977 30.0773 4.977 29.8502V29.45C5.2465 29.5305 5.5265 29.5877 5.82167 29.5877C6.12617 29.5877 6.41317 29.5282 6.68967 29.443V29.8514C6.68874 30.0781 6.59819 30.2953 6.43776 30.4555C6.27733 30.6157 6.06006 30.7059 5.83333 30.7066ZM33.3853 30.5817L31.4778 29.8665L31.1897 29.4197V28.7663C31.4827 28.4909 31.7163 28.1586 31.8762 27.7896C32.0361 27.4206 32.1189 27.0229 32.1195 26.6208V25.5206L32.6713 23.4975C32.7128 23.2716 32.7088 23.0396 32.6595 22.8152C32.6102 22.5909 32.5167 22.3786 32.3843 22.1908C32.2526 22.0018 32.0842 21.8412 31.8892 21.7186C31.6942 21.5959 31.4766 21.5137 31.2492 21.4768L28.5355 21.0241C28.2904 20.9834 28.0395 20.9965 27.8 21.0624C27.5605 21.1282 27.3381 21.2454 27.1483 21.4056C26.8858 21.6273 26.7003 21.9178 26.6082 22.2491C26.3492 22.3437 26.1209 22.5071 25.9478 22.7217C25.6597 23.0798 25.5488 23.5407 25.6783 24.0925L26.1917 25.3222V26.6208C26.1917 27.4771 26.5627 28.2436 27.1448 28.7862V29.4197L26.8555 29.8665L24.948 30.5817C24.4749 30.7614 24.0674 31.0802 23.7792 31.4961C23.4909 31.9121 23.3355 32.4056 23.3333 32.9116V34.4167C23.3333 34.5714 23.3948 34.7197 23.5042 34.8291C23.6136 34.9385 23.762 35 23.9167 35C24.0714 35 24.2197 34.9385 24.3291 34.8291C24.4385 34.7197 24.5 34.5714 24.5 34.4167V33.5125L25.7938 31.5092L27.4423 30.8909C27.797 31.4754 28.4352 31.8721 29.1678 31.8721C29.9005 31.8721 30.5375 31.4766 30.8922 30.8909L32.5407 31.5081L33.8333 33.5148V34.4167C33.8333 34.5714 33.8948 34.7197 34.0042 34.8291C34.1136 34.9385 34.262 35 34.4167 35C34.5714 35 34.7197 34.9385 34.8291 34.8291C34.9385 34.7197 35 34.5714 35 34.4167V32.9116C35 31.8814 34.3513 30.9446 33.3853 30.5817ZM27.356 26.6219V25.7481C27.3618 25.7399 27.3712 25.7364 27.377 25.7271L27.7608 25.0539H30.5667L30.9517 25.6186V26.6219C30.9517 27.6136 30.1455 28.4198 29.1538 28.4198C28.1622 28.4198 27.356 27.6125 27.356 26.6219ZM26.8543 23.4555C26.8866 23.4151 26.9276 23.3825 26.9743 23.3603C27.021 23.338 27.0721 23.3267 27.1238 23.3272C27.4458 23.3272 27.7072 23.0367 27.7072 22.7147C27.7066 22.6355 27.7236 22.5572 27.7569 22.4854C27.7902 22.4136 27.8389 22.3501 27.8997 22.2993C27.9601 22.2477 28.0311 22.21 28.1077 22.189C28.1844 22.168 28.2647 22.1643 28.343 22.178L31.0567 22.6307C31.1311 22.6427 31.2023 22.6697 31.2661 22.71C31.3298 22.7503 31.3848 22.8031 31.4277 22.8652C31.5072 22.9739 31.5445 23.1078 31.5327 23.242L31.304 24.0785C31.2495 24.0189 31.1832 23.9712 31.1093 23.9387C31.0354 23.9061 30.9554 23.8894 30.8747 23.8895H27.4213C27.3286 23.8893 27.2373 23.9114 27.1548 23.9538C27.0724 23.9962 27.0014 24.0578 26.9477 24.1334L26.7843 23.7495C26.7729 23.6984 26.7732 23.6454 26.7853 23.5944C26.7975 23.5435 26.8211 23.496 26.8543 23.4555ZM29.1667 30.7066C28.9396 30.7066 28.7217 30.6163 28.5611 30.4557C28.4006 30.2951 28.3103 30.0773 28.3103 29.8502V29.45C28.5798 29.5305 28.8598 29.5877 29.155 29.5877C29.4595 29.5877 29.7465 29.5282 30.023 29.443V29.8514C30.0221 30.0781 29.9315 30.2953 29.7711 30.4555C29.6107 30.6157 29.3934 30.7059 29.1667 30.7066Z" fill="url(#paint1_linear_27_387)"/>
<defs>
<linearGradient id="paint0_linear_27_387" x1="9.63691" y1="6.995" x2="26.4017" y2="10.4028" gradientUnits="userSpaceOnUse">
<stop stop-color="#00EB81"/>
<stop offset="1" stop-color="#0B828C"/>
</linearGradient>
<linearGradient id="paint1_linear_27_387" x1="-0.729166" y1="22.7708" x2="32.8435" y2="37.7841" gradientUnits="userSpaceOnUse">
<stop stop-color="#00EB81"/>
<stop offset="1" stop-color="#0B828C"/>
</linearGradient>
</defs>
</svg>
