<svg width="38" height="31" viewBox="0 0 38 31" fill="none" xmlns="http://www.w3.org/2000/svg">
<path d="M31.0138 1.41013C30.8256 1.15238 30.5255 1 30.2064 1H7.79293C7.47372 1 7.17369 1.1524 6.98541 1.41017L1.47461 8.95496C1.19749 9.33436 1.22187 9.85552 1.53319 10.2074L18.251 29.1035C18.649 29.5533 19.351 29.5533 19.749 29.1035L36.4668 10.2074C36.7781 9.85554 36.8025 9.33436 36.5253 8.95495L31.0138 1.41013Z" stroke="white" stroke-width="1.5" stroke-miterlimit="10" stroke-linecap="round" stroke-linejoin="round"/>
<path d="M2 9.61961H36M25.9896 9.91943L19.9444 27.2867C19.6329 28.1818 18.3671 28.1818 18.0556 27.2867L12.0104 9.91943C11.9425 9.72435 11.9367 9.51303 11.9937 9.3145L14.1751 1.72381C14.2982 1.29524 14.6903 1 15.1362 1H22.8638C23.3097 1 23.7018 1.29524 23.8249 1.7238L26.0063 9.3145C26.0633 9.51303 26.0575 9.72435 25.9896 9.91943Z" stroke="white" stroke-width="1.5" stroke-miterlimit="10" stroke-linecap="round" stroke-linejoin="round"/>
</svg>
