<svg width="20" height="15" viewBox="0 0 20 15" fill="none" xmlns="http://www.w3.org/2000/svg">
<path d="M17.5322 1.78269C15.0814 -0.0510137 12.7336 0.000355009 12.7336 0.000355009L12.4936 0.274463C15.4071 1.14858 16.761 2.43385 16.761 2.43385C12.5928 0.138883 7.28324 0.155304 2.94761 2.43385C2.94761 2.43385 4.35289 1.07995 7.43776 0.205831L7.26639 0.000144596C7.26639 0.000144596 4.93563 -0.0512245 2.46782 1.78248C2.46782 1.78248 0 6.22126 0 11.6883C0 11.6883 1.43959 14.1561 5.22721 14.2761C5.22721 14.2761 5.86133 13.522 6.37544 12.8708C4.19878 12.2196 3.37625 10.8657 3.37625 10.8657C4.74363 11.7213 6.12638 12.2569 7.84935 12.5967C10.6527 13.1738 14.1397 12.5805 16.744 10.8657C16.744 10.8657 15.8871 12.254 13.642 12.8881C14.1561 13.5222 14.7732 14.259 14.7732 14.259C18.5604 14.1392 20 11.6714 20 11.6885C20 6.22147 17.5322 1.78269 17.5322 1.78269ZM6.80365 10.0948C5.84385 10.0948 5.05563 9.25498 5.05563 8.20949C5.12574 5.70589 8.49925 5.71368 8.55188 8.20949C8.55167 9.25498 7.7805 10.0948 6.80365 10.0948ZM13.0591 10.0948C12.0993 10.0948 11.3111 9.25498 11.3111 8.20949C11.3881 5.71073 14.7195 5.70968 14.8073 8.20949C14.8071 9.25498 14.0359 10.0948 13.0591 10.0948Z" fill="white"/>
</svg>
