<svg width="33" height="36" viewBox="0 0 33 36" fill="none" xmlns="http://www.w3.org/2000/svg">
<path d="M26.6637 4.446C26.5197 4.446 26.3757 4.41 26.2497 4.338C22.7937 2.556 19.8057 1.8 16.2237 1.8C12.6597 1.8 9.27569 2.646 6.19769 4.338C5.76569 4.572 5.22569 4.41 4.97369 3.978C4.73969 3.546 4.90169 2.988 5.33369 2.754C8.68169 0.936 12.3537 0 16.2237 0C20.0577 0 23.4057 0.846 27.0777 2.736C27.5277 2.97 27.6897 3.51 27.4557 3.942C27.2937 4.266 26.9877 4.446 26.6637 4.446ZM0.905686 13.896C0.725686 13.896 0.545686 13.842 0.383686 13.734C-0.0303141 13.446 -0.120314 12.888 0.167686 12.474C1.94969 9.954 4.21769 7.974 6.91769 6.588C12.5697 3.672 19.8057 3.654 25.4757 6.57C28.1757 7.956 30.4437 9.918 32.2257 12.42C32.5137 12.816 32.4237 13.392 32.0097 13.68C31.5957 13.968 31.0377 13.878 30.7497 13.464C29.1297 11.196 27.0777 9.414 24.6477 8.172C19.4817 5.526 12.8757 5.526 7.72769 8.19C5.27969 9.45 3.22769 11.25 1.60769 13.518C1.46369 13.77 1.19369 13.896 0.905686 13.896ZM12.1557 35.622C11.9217 35.622 11.6877 35.532 11.5257 35.352C9.95969 33.786 9.11369 32.778 7.90769 30.6C6.66569 28.386 6.01769 25.686 6.01769 22.788C6.01769 17.442 10.5897 13.086 16.2057 13.086C21.8217 13.086 26.3937 17.442 26.3937 22.788C26.3937 23.292 25.9977 23.688 25.4937 23.688C24.9897 23.688 24.5937 23.292 24.5937 22.788C24.5937 18.432 20.8317 14.886 16.2057 14.886C11.5797 14.886 7.81769 18.432 7.81769 22.788C7.81769 25.38 8.39369 27.774 9.49169 29.718C10.6437 31.788 11.4357 32.67 12.8217 34.074C13.1637 34.434 13.1637 34.992 12.8217 35.352C12.6237 35.532 12.3897 35.622 12.1557 35.622ZM25.0617 32.292C22.9197 32.292 21.0297 31.752 19.4817 30.69C16.7997 28.872 15.1977 25.92 15.1977 22.788C15.1977 22.284 15.5937 21.888 16.0977 21.888C16.6017 21.888 16.9977 22.284 16.9977 22.788C16.9977 25.326 18.2937 27.72 20.4897 29.196C21.7677 30.06 23.2617 30.474 25.0617 30.474C25.4937 30.474 26.2137 30.42 26.9337 30.294C27.4197 30.204 27.8877 30.528 27.9777 31.032C28.0677 31.518 27.7437 31.986 27.2397 32.076C26.2137 32.274 25.3137 32.292 25.0617 32.292ZM21.4437 36C21.3717 36 21.2817 35.982 21.2097 35.964C18.3477 35.172 16.4757 34.11 14.5137 32.184C11.9937 29.682 10.6077 26.352 10.6077 22.788C10.6077 19.872 13.0917 17.496 16.1517 17.496C19.2117 17.496 21.6957 19.872 21.6957 22.788C21.6957 24.714 23.3697 26.28 25.4397 26.28C27.5097 26.28 29.1837 24.714 29.1837 22.788C29.1837 16.002 23.3337 10.494 16.1337 10.494C11.0217 10.494 6.34169 13.338 4.23569 17.748C3.53369 19.206 3.17369 20.916 3.17369 22.788C3.17369 24.192 3.29969 26.406 4.37969 29.286C4.55969 29.754 4.32569 30.276 3.85769 30.438C3.38969 30.618 2.86769 30.366 2.70569 29.916C1.82369 27.558 1.39169 25.218 1.39169 22.788C1.39169 20.628 1.80569 18.666 2.61569 16.956C5.00969 11.934 10.3197 8.676 16.1337 8.676C24.3237 8.676 30.9837 14.994 30.9837 22.77C30.9837 25.686 28.4997 28.062 25.4397 28.062C22.3797 28.062 19.8957 25.686 19.8957 22.77C19.8957 20.844 18.2217 19.278 16.1517 19.278C14.0817 19.278 12.4077 20.844 12.4077 22.77C12.4077 25.848 13.5957 28.728 15.7737 30.888C17.4837 32.58 19.1217 33.516 21.6597 34.218C22.1457 34.344 22.4157 34.848 22.2897 35.316C22.1997 35.73 21.8217 36 21.4437 36Z" fill="white"/>
</svg>
