<svg width="20" height="20" viewBox="0 0 20 20" fill="none" xmlns="http://www.w3.org/2000/svg">
<path d="M10 0C7.6255 9.84653e-05 5.32849 0.845114 3.51999 2.38385C1.71149 3.92258 0.509528 6.05462 0.12916 8.39848C-0.251207 10.7423 0.214845 13.1451 1.44393 15.1768C2.67301 17.2084 4.58491 18.7365 6.83755 19.4875C7.33755 19.575 7.52505 19.275 7.52505 19.0125C7.52505 18.775 7.51254 17.9875 7.51254 17.15C5.00003 17.6125 4.35003 16.5375 4.15003 15.975C3.9281 15.428 3.5763 14.9431 3.12503 14.5625C2.77503 14.375 2.27503 13.9125 3.11252 13.9C3.4323 13.9347 3.73901 14.046 4.00666 14.2244C4.2743 14.4028 4.49499 14.6432 4.65003 14.925C4.7868 15.1707 4.97071 15.387 5.19122 15.5615C5.41173 15.736 5.6645 15.8653 5.93506 15.9419C6.20562 16.0185 6.48864 16.041 6.76791 16.0081C7.04717 15.9752 7.3172 15.8875 7.56251 15.75C7.6058 15.2416 7.83237 14.7663 8.20003 14.4125C5.97503 14.1625 3.65003 13.3 3.65003 9.47503C3.63597 8.48118 4.00271 7.51961 4.67503 6.78753C4.36931 5.92375 4.40508 4.97581 4.77503 4.13753C4.77503 4.13753 5.6125 3.87502 7.52503 5.16253C9.16131 4.7125 10.8887 4.7125 12.525 5.16253C14.4375 3.86253 15.275 4.13753 15.275 4.13753C15.645 4.9758 15.6808 5.92376 15.375 6.78753C16.0494 7.51835 16.4164 8.48076 16.4 9.47503C16.4 13.3125 14.0625 14.1625 11.8375 14.4125C12.0762 14.6544 12.26 14.9448 12.3764 15.264C12.4929 15.5833 12.5393 15.9238 12.5125 16.2625C12.5125 17.6 12.5 18.675 12.5 19.0125C12.5 19.275 12.6875 19.5875 13.1875 19.4875C15.4362 18.7304 17.3426 17.1988 18.5664 15.166C19.7903 13.1333 20.2519 10.7318 19.8689 8.39024C19.4859 6.04865 18.2832 3.91937 16.4755 2.38251C14.6678 0.84565 12.3727 0.00123491 10 0Z" fill="#00EB81"/>
</svg>
