<svg width="38" height="30" viewBox="0 0 38 30" fill="none" xmlns="http://www.w3.org/2000/svg">
<path d="M0 2.11111C0 1.55121 0.22242 1.01424 0.61833 0.618331C1.01424 0.22242 1.55121 0 2.11111 0H35.8889C36.4488 0 36.9858 0.22242 37.3817 0.618331C37.7776 1.01424 38 1.55121 38 2.11111C38 2.67101 37.7776 3.20798 37.3817 3.60389C36.9858 3.9998 36.4488 4.22222 35.8889 4.22222H2.11111C1.55121 4.22222 1.01424 3.9998 0.61833 3.60389C0.22242 3.20798 0 2.67101 0 2.11111ZM0 14.7778C0 14.2179 0.22242 13.6809 0.61833 13.285C1.01424 12.8891 1.55121 12.6667 2.11111 12.6667H35.8889C36.4488 12.6667 36.9858 12.8891 37.3817 13.285C37.7776 13.6809 38 14.2179 38 14.7778C38 15.3377 37.7776 15.8746 37.3817 16.2706C36.9858 16.6665 36.4488 16.8889 35.8889 16.8889H2.11111C1.55121 16.8889 1.01424 16.6665 0.61833 16.2706C0.22242 15.8746 0 15.3377 0 14.7778ZM2.11111 25.3333C1.55121 25.3333 1.01424 25.5558 0.61833 25.9517C0.22242 26.3476 0 26.8845 0 27.4444C0 28.0043 0.22242 28.5413 0.61833 28.9372C1.01424 29.3331 1.55121 29.5556 2.11111 29.5556H35.8889C36.4488 29.5556 36.9858 29.3331 37.3817 28.9372C37.7776 28.5413 38 28.0043 38 27.4444C38 26.8845 37.7776 26.3476 37.3817 25.9517C36.9858 25.5558 36.4488 25.3333 35.8889 25.3333H2.11111Z" fill="#00EB81"/>
</svg>
