<svg width="25" height="36" viewBox="0 0 25 36" fill="none" xmlns="http://www.w3.org/2000/svg">
<path d="M12.3852 0C7.1628 0 2.9136 4.2492 2.9136 9.4716V14.8548C2.09418 15.0147 1.35568 15.4541 0.824268 16.098C0.292858 16.7419 0.00151178 17.5503 0 18.3852V32.4C0 34.3848 1.614 36 3.6 36H21.1692C23.1552 36 24.7692 34.3848 24.7692 32.4V18.3852C24.7677 17.5503 24.4763 16.7419 23.9449 16.098C23.4135 15.4541 22.675 15.0147 21.8556 14.8548V9.4716C21.8568 4.2492 17.6076 0 12.3852 0ZM5.3136 9.4716C5.3136 5.5716 8.4852 2.4 12.3852 2.4C16.2852 2.4 19.4568 5.5728 19.4568 9.4716V14.7852H5.3136V9.4716ZM22.3704 18.3852V32.4C22.3704 33.0612 21.8328 33.6 21.1704 33.6H3.6012C2.9388 33.6 2.4012 33.0612 2.4012 32.4V18.3852C2.4012 17.724 2.9388 17.1852 3.6012 17.1852H21.1692C21.8316 17.1852 22.3704 17.724 22.3704 18.3852Z" fill="white"/>
<path d="M12.3851 20.1264C11.243 20.1277 10.148 20.582 9.34034 21.3896C8.5327 22.1972 8.07842 23.2922 8.07715 24.4344C8.07715 26.3904 9.39715 28.026 11.1851 28.5504V29.4588C11.1851 29.7771 11.3116 30.0823 11.5366 30.3073C11.7617 30.5324 12.0669 30.6588 12.3851 30.6588C12.7034 30.6588 13.0086 30.5324 13.2337 30.3073C13.4587 30.0823 13.5851 29.7771 13.5851 29.4588V28.5492C15.3731 28.026 16.6931 26.3892 16.6931 24.4332C16.6931 22.0596 14.7599 20.1264 12.3851 20.1264ZM12.3851 26.3412C11.8791 26.3412 11.3938 26.1402 11.036 25.7824C10.6782 25.4245 10.4771 24.9392 10.4771 24.4332C10.4771 23.382 11.3339 22.5264 12.3851 22.5264C13.4363 22.5264 14.2931 23.382 14.2931 24.4344C14.2925 24.94 14.0912 25.4247 13.7335 25.782C13.3757 26.1393 12.8908 26.3412 12.3851 26.3412Z" fill="white"/>
</svg>
