<svg width="136" height="32" viewBox="0 0 136 32" fill="none" xmlns="http://www.w3.org/2000/svg">
<path d="M39.7182 14.0378V11.5051H51.2233C52.0479 11.5051 52.7351 11.564 53.3045 11.6818C53.8738 11.7996 54.345 11.996 54.6984 12.2512C55.0518 12.5064 55.3071 12.8402 55.4641 13.2525C55.6212 13.6648 55.6997 14.1556 55.6997 14.725V15.7459C55.6997 16.5509 55.5623 17.1203 55.2678 17.4737C54.9733 17.8271 54.6199 18.0627 54.188 18.1805C54.4236 18.2394 54.6592 18.3375 54.8555 18.4553C55.0715 18.5731 55.2482 18.7302 55.4052 18.9658C55.5623 19.1818 55.6801 19.4566 55.7586 19.7904C55.8372 20.1242 55.8764 20.5365 55.8764 21.0273V22.1268C55.8764 22.6765 55.7979 23.1477 55.6408 23.5207C55.4838 23.9134 55.2285 24.2275 54.8751 24.4828C54.5217 24.738 54.0702 24.9147 53.5008 25.0325C52.9314 25.1503 52.2639 25.2092 51.4589 25.2092H39.5612V22.6765H51.3804C51.9498 22.6765 52.3621 22.5979 52.6173 22.4605C52.8725 22.3231 52.9903 22.0286 52.9903 21.6163V20.8113C52.9903 20.242 52.8725 19.8886 52.6566 19.6922C52.421 19.5155 52.0283 19.4174 51.4786 19.4174H39.6201V17.1203H51.3804C51.9105 17.1203 52.2835 17.0417 52.4799 16.865C52.6762 16.6883 52.7744 16.3938 52.7744 15.9423V15.098C52.7744 14.6857 52.6566 14.4109 52.421 14.2734C52.1854 14.136 51.7338 14.0575 51.0859 14.0575H39.7182V14.0378Z" fill="white"/>
<path d="M57.9772 25.1699V11.5051H68.7951C69.8161 11.5051 70.6603 11.5837 71.3278 11.7604C71.9954 11.9371 72.5451 12.1923 72.9378 12.5653C73.3304 12.9384 73.6249 13.4096 73.782 14.0182C73.9587 14.6268 74.0372 15.3533 74.0372 16.1975V20.4776C74.0372 21.3414 73.9587 22.0875 73.782 22.6765C73.6053 23.2655 73.3304 23.7563 72.9378 24.1293C72.5451 24.5024 71.9954 24.7576 71.3278 24.9343C70.6603 25.111 69.8161 25.1896 68.7951 25.1896H57.9772V25.1699ZM70.9941 16.3349C70.9941 15.9226 70.9548 15.5692 70.8763 15.2747C70.7977 14.9802 70.6799 14.7643 70.5032 14.5876C70.3265 14.4109 70.0909 14.2931 69.7964 14.2342C69.5019 14.1556 69.1289 14.1164 68.6773 14.1164H61.0203V22.5587H68.6773C69.0896 22.5587 69.443 22.5194 69.7375 22.4605C70.032 22.4016 70.2676 22.2838 70.464 22.1071C70.6603 21.9304 70.7977 21.7145 70.8763 21.4396C70.9548 21.1647 71.0137 20.8113 71.0137 20.3794V16.3349H70.9941Z" fill="white"/>
<path d="M84.3448 13.5273C85.3657 13.5273 86.21 13.6059 86.8775 13.7826C87.545 13.9593 88.0751 14.2145 88.4874 14.5875C88.8801 14.9606 89.1746 15.4318 89.3317 16.0404C89.5084 16.649 89.5869 17.3755 89.5869 18.2393V19.7118C89.5869 20.5757 89.5084 21.3218 89.3317 21.9108C89.155 22.4998 88.8801 22.9906 88.4874 23.3636C88.0948 23.7367 87.545 23.9919 86.8775 24.1686C86.21 24.3453 85.3657 24.4238 84.3448 24.4238H78.2977V27.6633H75.3135V18.259C75.3135 17.3951 75.392 16.649 75.5687 16.06C75.7454 15.4514 76.0203 14.9802 76.4129 14.6072C76.8056 14.2341 77.3553 13.9789 78.0229 13.8022C78.6904 13.6255 79.5346 13.547 80.5556 13.547H84.3448V13.5273ZM86.583 18.3179C86.583 17.827 86.5437 17.454 86.4652 17.1595C86.3867 16.865 86.2492 16.6294 86.0529 16.4723C85.8566 16.3153 85.5817 16.1975 85.2479 16.1582C84.9142 16.0993 84.4822 16.0797 83.9521 16.0797H80.6145C80.1433 16.0797 79.7506 16.1189 79.4561 16.1778C79.142 16.2367 78.9064 16.3545 78.7297 16.5312C78.553 16.7079 78.4352 16.9239 78.3763 17.2184C78.3174 17.5129 78.2781 17.8663 78.2781 18.3179V21.8519H83.9718C84.5019 21.8519 84.9142 21.8322 85.2479 21.7733C85.5817 21.7341 85.8566 21.6163 86.0529 21.4592C86.2492 21.3021 86.3867 21.0665 86.4652 20.772C86.5437 20.4775 86.583 20.0849 86.583 19.594V18.3179Z" fill="white"/>
<path d="M95.3393 24.4042C94.554 24.4042 93.9061 24.3453 93.3957 24.2079C92.8852 24.0704 92.4925 23.8741 92.1784 23.6385C91.8839 23.3833 91.6679 23.0888 91.5501 22.7354C91.4323 22.382 91.3734 21.9893 91.3734 21.5377V20.5168C91.3734 20.0652 91.4323 19.6529 91.5501 19.2995C91.6679 18.9461 91.8643 18.6516 92.1391 18.3964C92.414 18.1412 92.8067 17.9645 93.2975 17.827C93.7883 17.7092 94.3969 17.6307 95.143 17.6307H103.173V17.3951C103.173 16.7079 103.036 16.2367 102.761 16.0011C102.486 15.7655 102.015 15.6477 101.328 15.6477H91.6483V13.5273H101.328C102.191 13.5273 102.937 13.6059 103.546 13.7629C104.155 13.92 104.646 14.1752 105.038 14.4894C105.431 14.8231 105.706 15.2354 105.882 15.7263C106.059 16.2367 106.157 16.8257 106.157 17.5129V20.1634C106.157 20.9487 106.079 21.6163 105.922 22.1464C105.765 22.6765 105.509 23.1084 105.117 23.4422C104.744 23.7759 104.233 24.0115 103.585 24.149C102.957 24.2864 102.152 24.3649 101.19 24.3649H95.3393V24.4042ZM103.173 19.4762H95.4572C95.1038 19.4762 94.8289 19.5548 94.6326 19.7118C94.4362 19.8689 94.3381 20.1634 94.3381 20.5757V21.3218C94.3381 21.7144 94.4362 21.9697 94.6522 22.1267C94.8681 22.2642 95.1627 22.3427 95.5553 22.3427H101.17C101.524 22.3427 101.818 22.3231 102.074 22.2642C102.329 22.2053 102.525 22.1071 102.702 21.9697C102.859 21.8322 102.977 21.6359 103.055 21.3807C103.134 21.1254 103.173 20.7917 103.173 20.399V19.4762Z" fill="white"/>
<path d="M121.196 21.5181C121.196 22.0482 121.157 22.4998 121.059 22.8728C120.961 23.2459 120.784 23.5404 120.509 23.7563C120.234 23.9919 119.861 24.149 119.39 24.2472C118.919 24.3453 118.291 24.4042 117.545 24.4042H108.199V22.0482H117.152C117.545 22.0482 117.839 21.9893 117.996 21.8519C118.153 21.7145 118.232 21.4592 118.232 21.0862V20.7328C118.232 20.3401 118.153 20.0849 117.996 19.9867C117.839 19.8886 117.584 19.8297 117.231 19.8297H111.144C110.536 19.8297 110.025 19.7708 109.652 19.653C109.279 19.5352 108.965 19.3585 108.769 19.1032C108.553 18.8676 108.415 18.5731 108.337 18.2197C108.258 17.8663 108.219 17.454 108.219 16.9632V16.1386C108.219 15.6674 108.278 15.2747 108.376 14.941C108.474 14.6072 108.631 14.3323 108.867 14.136C109.102 13.92 109.397 13.7826 109.79 13.6844C110.182 13.5863 110.673 13.547 111.262 13.547H120.902V15.8048H111.969C111.674 15.8048 111.458 15.8637 111.341 15.9619C111.223 16.0601 111.144 16.2564 111.144 16.5509V17.0614C111.144 17.3755 111.203 17.5718 111.321 17.6896C111.439 17.7878 111.635 17.8467 111.91 17.8467H117.8C118.487 17.8467 119.056 17.9056 119.508 18.0234C119.94 18.1412 120.293 18.3179 120.549 18.5731C120.804 18.8284 120.981 19.1425 121.079 19.5352C121.177 19.9278 121.216 20.4187 121.216 20.988V21.5181H121.196Z" fill="white"/>
<path d="M135.98 21.5181C135.98 22.0482 135.941 22.4998 135.843 22.8728C135.745 23.2459 135.568 23.5404 135.293 23.7563C135.018 23.9919 134.645 24.149 134.174 24.2472C133.703 24.3453 133.075 24.4042 132.329 24.4042H122.964V22.0482H131.916C132.309 22.0482 132.603 21.9893 132.761 21.8519C132.918 21.7145 132.996 21.4592 132.996 21.0862V20.7328C132.996 20.3401 132.918 20.0849 132.761 19.9867C132.603 19.8886 132.348 19.8297 131.995 19.8297H125.908C125.3 19.8297 124.789 19.7708 124.416 19.653C124.043 19.5352 123.729 19.3585 123.533 19.1032C123.317 18.8676 123.179 18.5731 123.101 18.2197C123.022 17.8663 122.983 17.454 122.983 16.9632V16.1386C122.983 15.6674 123.042 15.2747 123.14 14.941C123.238 14.6072 123.395 14.3323 123.631 14.136C123.867 13.92 124.161 13.7826 124.554 13.6844C124.946 13.5863 125.437 13.547 126.026 13.547H135.863V15.8048H126.753C126.458 15.8048 126.242 15.8637 126.124 15.9619C126.007 16.0601 125.928 16.2564 125.928 16.5509V17.0614C125.928 17.3755 125.987 17.5718 126.105 17.6896C126.223 17.7878 126.419 17.8467 126.694 17.8467H132.584C133.271 17.8467 133.84 17.9056 134.292 18.0234C134.724 18.1412 135.077 18.3179 135.332 18.5731C135.588 18.8284 135.764 19.1425 135.863 19.5352C135.961 19.9278 136 20.4187 136 20.988V21.5181H135.98Z" fill="white"/>
<path d="M17.081 10.8769L0.05896 4.73163V0L17.081 6.14523V10.8769Z" fill="url(#paint0_linear_25_2)"/>
<path d="M17.0025 20.242L0 14.0967V9.36511L17.0025 15.5103V20.242Z" fill="url(#paint1_linear_25_2)"/>
<path d="M17.0025 29.7249L0 23.5797V18.8677L17.0025 24.9933V29.7249Z" fill="url(#paint2_linear_25_2)"/>
<path d="M34.0049 31.1384L34.1227 7.55881L17.1202 1.41357V6.14521L29.4696 10.602V24.7772L16.9828 20.2616V24.9932L34.0049 31.1384Z" fill="#0B828C"/>
<defs>
<linearGradient id="paint0_linear_25_2" x1="19.6996" y1="5.43845" x2="5.1476" y2="5.43845" gradientUnits="userSpaceOnUse">
<stop stop-color="#0B828C"/>
<stop offset="1" stop-color="#00EB81"/>
</linearGradient>
<linearGradient id="paint1_linear_25_2" x1="19.6995" y1="14.8056" x2="5.14754" y2="14.8056" gradientUnits="userSpaceOnUse">
<stop stop-color="#0B828C"/>
<stop offset="1" stop-color="#00EB81"/>
</linearGradient>
<linearGradient id="paint2_linear_25_2" x1="19.6995" y1="24.2942" x2="5.14754" y2="24.2942" gradientUnits="userSpaceOnUse">
<stop stop-color="#0B828C"/>
<stop offset="1" stop-color="#00EB81"/>
</linearGradient>
</defs>
</svg>
