<svg width="200" height="31" viewBox="0 0 200 31" fill="none" xmlns="http://www.w3.org/2000/svg">
<path d="M30 15.2943C30 23.5526 23.3 30.2583 15 30.2583C6.7 30.2583 0 23.5526 0 15.2943C0 7.03605 6.7 0.330331 15 0.330331C23.3 0.330331 30 7.03605 30 15.2943ZM46.4333 15.2943C46.4333 23.0571 43.0667 29.3664 38.9333 29.3664C34.8 29.3664 31.4333 23.0571 31.4333 15.2943C31.4333 7.53154 34.8 1.22222 38.9333 1.22222C43.0667 1.22222 46.4333 7.49851 46.4333 15.2943ZM53.1667 15.2943C53.1667 22.2643 52 27.913 50.5333 27.913C49.0667 27.913 47.9 22.2643 47.9 15.2943C47.9 8.32434 49.0667 2.67567 50.5333 2.67567C52 2.67567 53.1667 8.32434 53.1667 15.2943ZM94.5333 1.61862H94.5667V1.28829H86.0333L78.1333 19.7538L70.2 1.32132H61V1.65165H61.0333C62.6 2.01502 63.3667 2.51051 63.3667 4.3934V26.3274C63.3667 28.2103 62.5667 28.7058 61.0333 29.0691H61V29.3995H67.2333V29.0691H67.2C65.6333 28.7058 64.8667 28.2103 64.8667 26.3274V5.68169L75.0333 29.3995H75.6L86.0667 5.02102V26.8889C85.9333 28.3754 85.1667 28.8379 83.7333 29.1352H83.7V29.4655H94.5667V29.1352H94.5333C93.1333 28.8049 92.3333 28.3754 92.2 26.8889V4.42643C92.2 2.51051 93 1.98198 94.5333 1.61862ZM99.5 16.1532C99.6667 12.2222 101.1 9.38139 103.5 9.31533C104.233 9.31533 104.867 9.5796 105.333 10.0421C106.367 11.0331 106.833 13.0811 106.767 16.1532H99.5ZM99.4 17.2433H112.133V17.1772C112.1 14.1712 111.233 11.8258 109.533 10.2072C108.067 8.81983 105.9 8.06007 103.6 8.06007H103.533C102.333 8.06007 100.9 8.35737 99.8667 8.85287C98.7 9.38139 97.6667 10.2072 96.8 11.2643C95.4 12.982 94.5667 15.2613 94.3667 17.8709C94.3667 17.937 94.3667 18.0361 94.3333 18.1021C94.3333 18.1682 94.3333 18.2343 94.3333 18.3334C94.3 18.6967 94.3 19.0601 94.3 19.4235C94.4333 25.3033 97.6333 29.994 103.333 29.994C108.333 29.994 111.233 26.3934 111.967 21.5376L111.6 21.4054C110.333 24.0151 108.033 25.6006 105.433 25.4024C101.867 25.1382 99.1333 21.5706 99.4 17.2433ZM126.5 25.2042C126.067 26.1952 125.2 26.7238 124.033 26.7238C122.867 26.7238 121.8 25.931 121.033 24.4775C120.233 22.925 119.8 20.7448 119.8 18.1352C119.8 12.7508 121.5 9.24927 124.133 9.24927C125.233 9.24927 126.1 9.7778 126.5 10.7358V25.2042ZM134.967 29.0691C133.4 28.7058 132.633 28.1772 132.633 26.1952V0L123.167 2.77478V3.10511H123.233C124.533 3.00601 125.433 3.17118 125.933 3.63364C126.333 3.997 126.533 4.55856 126.533 5.35136V8.95196C125.6 8.35736 124.5 8.06007 123.133 8.06007C120.4 8.06007 117.9 9.18319 116.1 11.2643C114.233 13.4114 113.233 16.3514 113.233 19.7868C113.233 25.8979 116.267 29.994 120.767 29.994C123.4 29.994 125.533 28.5736 126.5 26.1292V29.3664H135V29.0361L134.967 29.0691ZM143.067 3.56757C143.067 1.65165 141.633 0.231226 139.7 0.231226C137.8 0.231226 136.3 1.68468 136.3 3.56757C136.3 5.45046 137.8 6.90391 139.7 6.90391C141.6 6.90391 143.067 5.48349 143.067 3.56757ZM145.3 29.0691C143.733 28.7058 142.967 28.1772 142.967 26.1952V8.15917L134.467 10.5706V10.9009H134.533C136.367 11.0661 136.867 11.6937 136.867 13.8078V29.3995H145.333V29.0691H145.3ZM167.033 29.0691C165.467 28.7058 164.7 28.1772 164.7 26.1952V8.15917L156.633 10.5045V10.8349H156.667C158.167 11 158.6 11.6607 158.6 13.7748V25.1712C158.1 26.1622 157.167 26.7238 156.033 26.7898C154.2 26.7898 153.167 25.5676 153.167 23.3214V8.15917L144.667 10.5706V10.9009H144.733C146.567 11.0661 147.067 11.6937 147.067 13.8078V23.4535C147.067 24.1142 147.133 24.8078 147.233 25.4685L147.4 26.1292C148.133 28.6727 150 30.0271 152.933 30.0271C155.433 30.0271 157.633 28.5076 158.6 26.0961V29.4325H167.1V29.1021L167.033 29.0691ZM200 29.3995V29.0691H199.967C198.267 28.6727 197.633 27.946 197.633 26.4595V14.2042C197.633 10.3724 195.467 8.09311 191.833 8.09311C189.2 8.09311 186.967 9.61262 186.1 11.958C185.433 9.44746 183.467 8.09311 180.533 8.09311C177.967 8.09311 175.967 9.41443 175.133 11.6937V8.15917L166.633 10.4715V10.8018H166.7C168.5 10.967 169.033 11.5946 169.033 13.6757V29.3995H176.967V29.0691H176.933C175.6 28.7718 175.167 28.1772 175.167 26.7238V12.6517C175.533 11.8258 176.233 10.8349 177.667 10.8349C179.433 10.8349 180.333 12.0571 180.333 14.4355V29.3995H188.267V29.0691H188.233C186.9 28.7718 186.467 28.1772 186.467 26.7238V14.2042C186.467 13.7418 186.433 13.2793 186.367 12.8168C186.733 11.9249 187.5 10.8679 188.967 10.8679C190.767 10.8679 191.633 12.0571 191.633 14.4685V29.4325H200V29.3995Z" fill="white"/>
</svg>
