<svg width="31" height="31" viewBox="0 0 31 31" fill="none" xmlns="http://www.w3.org/2000/svg">
<path fill-rule="evenodd" clip-rule="evenodd" d="M11.5625 1H2C1.44772 1 1 1.44772 1 2V11.5625C1 12.1148 1.44772 12.5625 2 12.5625H11.5625C12.1148 12.5625 12.5625 12.1148 12.5625 11.5625V2C12.5625 1.44772 12.1148 1 11.5625 1ZM2 0C0.895431 0 0 0.895431 0 2V11.5625C0 12.6671 0.895431 13.5625 2 13.5625H11.5625C12.6671 13.5625 13.5625 12.6671 13.5625 11.5625V2C13.5625 0.895431 12.6671 0 11.5625 0H2ZM11.5625 18.4375H2C1.44772 18.4375 1 18.8852 1 19.4375V29C1 29.5523 1.44772 30 2 30H11.5625C12.1148 30 12.5625 29.5523 12.5625 29V19.4375C12.5625 18.8852 12.1148 18.4375 11.5625 18.4375ZM2 17.4375C0.895431 17.4375 0 18.3329 0 19.4375V29C0 30.1046 0.895431 31 2 31H11.5625C12.6671 31 13.5625 30.1046 13.5625 29V19.4375C13.5625 18.3329 12.6671 17.4375 11.5625 17.4375H2ZM19.4375 1H29C29.5523 1 30 1.44772 30 2V11.5625C30 12.1148 29.5523 12.5625 29 12.5625H19.4375C18.8852 12.5625 18.4375 12.1148 18.4375 11.5625V2C18.4375 1.44772 18.8852 1 19.4375 1ZM17.4375 2C17.4375 0.895431 18.3329 0 19.4375 0H29C30.1046 0 31 0.895431 31 2V11.5625C31 12.6671 30.1046 13.5625 29 13.5625H19.4375C18.3329 13.5625 17.4375 12.6671 17.4375 11.5625V2ZM23.25 18.4062C23.25 17.8712 23.6837 17.4375 24.2188 17.4375C24.7538 17.4375 25.1875 17.8712 25.1875 18.4062V23.25H30.0312C30.5663 23.25 31 23.6837 31 24.2188C31 24.7538 30.5663 25.1875 30.0312 25.1875H25.1875V30.0312C25.1875 30.5663 24.7538 31 24.2188 31C23.6837 31 23.25 30.5663 23.25 30.0312V25.1875H18.4062C17.8712 25.1875 17.4375 24.7538 17.4375 24.2188C17.4375 23.6837 17.8712 23.25 18.4062 23.25H23.25V18.4062Z" fill="url(#paint0_linear_27_398)"/>
<defs>
<linearGradient id="paint0_linear_27_398" x1="-0.645833" y1="11.625" x2="32.9375" y2="20.0208" gradientUnits="userSpaceOnUse">
<stop stop-color="#00EB81"/>
<stop offset="1" stop-color="#0B828C"/>
</linearGradient>
</defs>
</svg>
