<svg width="36" height="34" viewBox="0 0 36 34" fill="none" xmlns="http://www.w3.org/2000/svg">
<path d="M3.15 0.000804074C3.12183 0.00409797 3.09392 0.0092522 3.06643 0.0162328C2.24249 0.0541682 1.46467 0.407389 0.893897 1.00281C0.323125 1.59823 0.00308624 2.39029 0 3.21509V5.14366H5.14286V30.2151C5.14286 31.9842 6.588 33.4294 8.35714 33.4294H32.7857C34.5549 33.4294 36 31.9842 36 30.2151V28.2865H30.8571V3.21509C30.8571 1.44595 29.412 0.000804074 27.6429 0.000804074H3.21429C3.19287 -0.000268025 3.17141 -0.000268025 3.15 0.000804074ZM3.21429 1.28652C4.29429 1.28652 5.14286 2.13509 5.14286 3.21509V3.85795H1.28571V3.21509C1.28571 2.13509 2.13429 1.28652 3.21429 1.28652ZM5.76771 1.28652H27.6429C28.7229 1.28652 29.5714 2.13509 29.5714 3.21509V28.2865H10.2857V30.2151C10.2857 31.2951 9.43714 32.1437 8.35714 32.1437C7.27714 32.1437 6.42857 31.2951 6.42857 30.2151V3.21509C6.42857 2.48995 6.17657 1.82652 5.76771 1.28652ZM12.8571 3.85795V5.14366H23.1429V3.85795H12.8571ZM9 7.71509V9.0008H27V7.71509H9ZM9 10.2865V11.5722H27V10.2865H9ZM9 12.8579V14.1437H27V12.8579H9ZM9 15.4294V16.7151H27V15.4294H9ZM9 18.0008V19.2865H27V18.0008H9ZM9 20.5722V21.8579H18V20.5722H9ZM21.8571 24.4294V25.7151H27V24.4294H21.8571ZM11.5714 29.5722H34.7143V30.2151C34.7143 31.2951 33.8657 32.1437 32.7857 32.1437H10.7704C11.205 31.5959 11.5714 30.9659 11.5714 30.2151V29.5722Z" fill="white"/>
</svg>
