<svg width="38" height="38" viewBox="0 0 38 38" fill="none" xmlns="http://www.w3.org/2000/svg">
<path d="M25.3544 37.9492C25.2625 37.9492 25.1716 37.9305 25.0871 37.8942L15.5912 33.8245C15.4692 33.7722 15.3653 33.6853 15.2922 33.5745C15.2191 33.4637 15.1802 33.3339 15.1802 33.2012V20.9922C15.1802 20.8799 15.2081 20.7694 15.2613 20.6706C15.3145 20.5718 15.3914 20.4877 15.4851 20.426C15.5788 20.3642 15.6864 20.3266 15.7982 20.3166C15.91 20.3067 16.0225 20.3246 16.1257 20.3688L25.6216 24.4385C25.7436 24.4908 25.8476 24.5777 25.9206 24.6885C25.9937 24.7993 26.0326 24.9291 26.0326 25.0618V37.2709C26.0326 37.4508 25.9612 37.6233 25.834 37.7505C25.7068 37.8777 25.5343 37.9492 25.3544 37.9492ZM16.5367 32.7535L24.6761 36.2419V25.5095L16.5367 22.0218V32.7535Z" fill="white"/>
<path d="M25.3543 37.9492C25.1744 37.9492 25.0019 37.8777 24.8747 37.7505C24.7475 37.6233 24.676 37.4508 24.676 37.2709V25.0618C24.676 24.9291 24.715 24.7993 24.7881 24.6885C24.8611 24.5777 24.9651 24.4908 25.0871 24.4385L34.583 20.3688C34.6861 20.3246 34.7987 20.3067 34.9105 20.3166C35.0223 20.3266 35.1298 20.3642 35.2235 20.426C35.3173 20.4877 35.3942 20.5718 35.4474 20.6706C35.5006 20.7694 35.5285 20.8799 35.5285 20.9922V33.2012C35.5285 33.3339 35.4895 33.4637 35.4165 33.5745C35.3434 33.6853 35.2394 33.7722 35.1175 33.8245L25.6215 37.8942C25.5371 37.9304 25.4462 37.9491 25.3543 37.9492ZM26.0326 25.5095V36.2419L34.1719 32.7542V22.0211L26.0326 25.5095Z" fill="white"/>
<path d="M11.9801 34.627C11.3243 34.6263 10.6827 34.4363 10.1324 34.0797C9.58201 33.7232 9.14631 33.2154 8.87761 32.6172L0.297376 13.4219C0.115312 13.0149 0.0152082 12.5761 0.00278327 12.1304C-0.00964169 11.6848 0.0658554 11.2411 0.224962 10.8246C0.384068 10.4081 0.623666 10.0271 0.93007 9.70321C1.23647 9.37935 1.60368 9.11903 2.01071 8.93713L16.6195 2.41208C16.7008 2.37574 16.7885 2.35577 16.8775 2.35332C16.9666 2.35086 17.0552 2.36597 17.1384 2.39778C17.2216 2.42958 17.2978 2.47747 17.3625 2.53869C17.4272 2.59992 17.4792 2.67329 17.5155 2.75461C17.5518 2.83593 17.5718 2.92362 17.5743 3.01266C17.5767 3.1017 17.5616 3.19035 17.5298 3.27355C17.498 3.35676 17.4501 3.43288 17.3889 3.49758C17.3277 3.56227 17.2543 3.61428 17.173 3.65062L2.56283 10.1757C2.31851 10.2849 2.09812 10.4413 1.91426 10.6358C1.7304 10.8303 1.58668 11.0591 1.49131 11.3092C1.39594 11.5593 1.35079 11.8257 1.35844 12.0933C1.3661 12.3608 1.4264 12.6242 1.53591 12.8684L10.1161 32.0631C10.3373 32.5544 10.744 32.9382 11.2473 33.1307C11.7506 33.3231 12.3096 33.3085 12.8021 33.09L12.893 33.0527C12.9758 33.0195 13.0642 33.003 13.1534 33.0041C13.2425 33.0051 13.3305 33.0237 13.4125 33.0588C13.4944 33.0939 13.5687 33.1448 13.6309 33.2085C13.6932 33.2723 13.7423 33.3477 13.7755 33.4305C13.8086 33.5132 13.8251 33.6017 13.8241 33.6908C13.823 33.7799 13.8044 33.868 13.7693 33.9499C13.7342 34.0319 13.6834 34.1061 13.6196 34.1684C13.5558 34.2307 13.4804 34.2798 13.3977 34.3129L13.3298 34.34C12.9051 34.5295 12.4452 34.6273 11.9801 34.627Z" fill="white"/>
<path d="M8.43812 22.3419C8.30716 22.3419 8.17903 22.3039 8.06916 22.2327C7.95928 22.1614 7.87235 22.0599 7.81885 21.9404L4.77337 15.1305C4.70019 14.9663 4.69515 14.7798 4.75938 14.6119C4.8236 14.4441 4.95183 14.3085 5.1159 14.2352L11.9326 11.189C12.0793 11.1234 12.2445 11.1121 12.3987 11.1569C12.553 11.2017 12.6864 11.2999 12.775 11.4339C12.8529 11.5512 12.8965 11.6879 12.9012 11.8286C12.9013 11.993 12.842 12.152 12.7342 12.2761C12.6264 12.4003 12.4773 12.4813 12.3145 12.5042L6.28865 15.1963L8.86747 20.9623C8.9902 21.0132 9.09529 21.099 9.16969 21.2091C9.24409 21.3192 9.28452 21.4487 9.28597 21.5815C9.28741 21.7144 9.24981 21.8447 9.17782 21.9564C9.10583 22.0681 9.00263 22.1561 8.88103 22.2097L8.71146 22.2843C8.62558 22.3224 8.53274 22.3422 8.43879 22.3426L8.43812 22.3419Z" fill="white"/>
<path d="M11.4496 26.3865C11.3542 26.3865 11.26 26.3664 11.1729 26.3275L9.7417 25.6879C8.94802 25.3356 8.32044 24.6912 7.98918 23.8885C7.65791 23.0857 7.64839 22.1863 7.96258 21.3768C7.97683 21.3298 7.99404 21.2838 8.01413 21.2391L11.6294 13.1472C11.6357 13.1283 11.6429 13.1098 11.6511 13.0916L13.7673 8.35719C13.7799 8.32943 13.7941 8.30247 13.81 8.27647L16.6093 2.00917C16.7904 1.60244 17.0499 1.2354 17.373 0.929059C17.6961 0.622722 18.0764 0.383098 18.4922 0.223899C18.908 0.0646993 19.3511 -0.0109506 19.7962 0.00127762C20.2412 0.0135058 20.6795 0.113372 21.0859 0.295162L35.947 6.93552C36.7688 7.30278 37.4111 7.98146 37.7326 8.82226C38.054 9.66306 38.0283 10.5971 37.661 11.4189L34.7234 17.9996C34.6871 18.0809 34.6351 18.1543 34.5704 18.2155C34.5057 18.2768 34.4295 18.3246 34.3463 18.3564C34.2631 18.3883 34.1745 18.4034 34.0855 18.4009C33.9964 18.3985 33.9087 18.3785 33.8274 18.3421C33.7461 18.3058 33.6727 18.2538 33.6115 18.1891C33.5503 18.1244 33.5024 18.0483 33.4706 17.9651C33.4388 17.8819 33.4237 17.7932 33.4261 17.7042C33.4286 17.6151 33.4485 17.5275 33.4849 17.4461L36.4218 10.8668C36.6424 10.3737 36.6581 9.81322 36.4655 9.30853C36.273 8.80383 35.8879 8.39627 35.3949 8.17541L20.5338 1.53438C20.2901 1.42491 20.0272 1.36464 19.7601 1.35703C19.493 1.34941 19.2271 1.39461 18.9775 1.49002C18.728 1.58543 18.4997 1.72918 18.3059 1.91301C18.112 2.09685 17.9563 2.31716 17.8478 2.56129L15.0126 8.90999C15.0001 8.93801 14.9859 8.9652 14.9699 8.99138L12.9113 13.5969C12.905 13.6156 12.8977 13.6339 12.8896 13.6518L9.26759 21.7573C9.2642 21.7647 9.26759 21.7437 9.27301 21.7193C9.26494 21.7605 9.25313 21.8009 9.23774 21.84C9.04156 22.3272 9.04215 22.8715 9.23941 23.3583C9.43667 23.845 9.81518 24.2362 10.2952 24.4494L11.7264 25.089C11.8682 25.1524 11.9839 25.2625 12.0543 25.4009C12.1247 25.5394 12.1454 25.6978 12.113 25.8497C12.0806 26.0016 11.997 26.1378 11.8763 26.2355C11.7556 26.3332 11.6049 26.3865 11.4496 26.3865Z" fill="white"/>
<path d="M22.0739 16.1769C21.3664 16.1767 20.667 16.0272 20.0214 15.7381C19.2121 15.3783 18.5108 14.8135 17.9867 14.0995C17.4626 13.3856 17.1339 12.5472 17.0332 11.6673C16.9324 10.7874 17.0631 9.89646 17.4122 9.08252C17.7613 8.26859 18.3169 7.55988 19.0239 7.02646C19.7309 6.49304 20.5648 6.15338 21.4433 6.04108C22.3218 5.92877 23.2144 6.04771 24.0329 6.38612C24.8513 6.72453 25.5673 7.2707 26.11 7.97063C26.6526 8.67056 27.0032 9.50001 27.127 10.377C27.2393 11.1395 27.1754 11.9177 26.9403 12.6517C26.7051 13.3857 26.305 14.0561 25.7705 14.6115C25.7097 14.6794 25.6359 14.7344 25.5534 14.7732C25.4708 14.812 25.3814 14.8338 25.2903 14.8372C25.1991 14.8406 25.1083 14.8256 25.0231 14.7931C24.9379 14.7606 24.8602 14.7113 24.7945 14.6481C24.7288 14.5848 24.6765 14.509 24.6408 14.4251C24.6051 14.3413 24.5866 14.251 24.5866 14.1599C24.5865 14.0687 24.6048 13.9784 24.6404 13.8945C24.676 13.8106 24.7282 13.7347 24.7938 13.6714C25.1844 13.2651 25.4768 12.7749 25.6487 12.2382C25.8206 11.7015 25.8674 11.1326 25.7854 10.575C25.695 9.93247 25.4386 9.32462 25.0413 8.81156C24.6441 8.2985 24.1198 7.898 23.5203 7.64964C22.9209 7.40128 22.267 7.31366 21.6233 7.39545C20.9796 7.47724 20.3684 7.7256 19.8501 8.11598C19.3317 8.50636 18.9243 9.02525 18.668 9.62135C18.4116 10.2174 18.3153 10.8701 18.3885 11.5149C18.4617 12.1596 18.7019 12.7741 19.0854 13.2975C19.4688 13.821 19.9822 14.2353 20.5749 14.4995C21.0703 14.7241 21.6101 14.8336 22.1539 14.8197C22.3338 14.8157 22.5079 14.8834 22.6379 15.0078C22.7679 15.1322 22.8431 15.3032 22.8471 15.4831C22.8511 15.6629 22.7834 15.837 22.659 15.967C22.5346 16.097 22.3636 16.1723 22.1837 16.1763C22.1469 16.1768 22.1107 16.177 22.0739 16.1769Z" fill="white"/>
</svg>
