<?xml version="1.0" encoding="utf-8"?>
<!-- Generator: Adobe Illustrator 15.1.0, SVG Export Plug-In . SVG Version: 6.00 Build 0)  -->
<!DOCTYPE svg PUBLIC "-//W3C//DTD SVG 1.1//EN" "http://www.w3.org/Graphics/SVG/1.1/DTD/svg11.dtd">
<svg version="1.1" id="Layer_1" xmlns="http://www.w3.org/2000/svg" xmlns:xlink="http://www.w3.org/1999/xlink" x="0px" y="0px"
	 viewBox="0 0 800 230" enable-background="new 0 0 800 230" xml:space="preserve">
<g>
	<defs>
		<path id="SVGID_1_" d="M70.958,83.719c0.19,0.159,0.367,0.341,0.517,0.54l45.701,59.844l22.799-29.778l-13.444-17.601
			c-0.004-0.005-0.009-0.005-0.013-0.009c-0.241-0.182-0.486-0.359-0.731-0.531C110.623,85.381,85.6,83.26,70.504,82.953
			c-0.541-0.015-1.072-0.024-1.585-0.028C69.673,82.956,70.39,83.242,70.958,83.719"/>
	</defs>
	<clipPath id="SVGID_2_">
		<use xlink:href="#SVGID_1_"  overflow="visible"/>
	</clipPath>
	
		<linearGradient id="SVGID_3_" gradientUnits="userSpaceOnUse" x1="0" y1="230.0342" x2="1" y2="230.0342" gradientTransform="matrix(-172.3686 -205.0481 -205.0481 172.3686 47373.3398 -39416.8711)">
		<stop  offset="0" style="stop-color:#54BEFF"/>
		<stop  offset="1" style="stop-color:#1849FE"/>
	</linearGradient>
	<polygon clip-path="url(#SVGID_2_)" fill="url(#SVGID_3_)" points="98.34,179.103 38.785,108.256 110.554,47.926 170.109,118.771 	
		"/>
</g>
<g>
	<defs>
		<polygon id="SVGID_4_" points="139.941,173.909 181.698,228.588 227.184,228.516 185.481,173.909 		"/>
	</defs>
	<clipPath id="SVGID_5_">
		<use xlink:href="#SVGID_4_"  overflow="visible"/>
	</clipPath>
	
		<linearGradient id="SVGID_6_" gradientUnits="userSpaceOnUse" x1="0" y1="230" x2="1" y2="230" gradientTransform="matrix(-172.3686 -205.0481 -205.0481 172.3686 47369.5898 -39413.8086)">
		<stop  offset="0" style="stop-color:#54BEFF"/>
		<stop  offset="1" style="stop-color:#1849FE"/>
	</linearGradient>
	<polygon clip-path="url(#SVGID_5_)" fill="url(#SVGID_6_)" points="176.064,271.561 113.008,196.549 191.061,130.937 
		254.117,205.948 	"/>
</g>
<g>
	<defs>
		<path id="SVGID_7_" d="M143.542,46.729v36.188h20.486l-24.061,31.404l-22.781,29.788l-0.023,0.023c0,0-0.024,0.048-0.097,0.12
			c-0.073,0.097-0.218,0.29-0.411,0.556c-0.048,0.024-0.048,0.049-0.073,0.072c-0.216,0.29-0.507,0.677-0.869,1.136
			c-0.918,1.207-2.246,2.947-3.841,5.05c-1.232,1.617-2.634,3.43-4.131,5.409c-2.367,3.117-5.001,6.597-7.682,10.074
			c-1.619,2.15-3.261,4.276-4.879,6.377c-0.725,0.943-1.426,1.884-2.126,2.779c-0.846,1.111-1.667,2.223-2.464,3.26
			c-0.725,0.943-1.426,1.861-2.102,2.754c-0.218,0.291-0.435,0.581-0.653,0.871c-0.434,0.555-0.845,1.111-1.255,1.643
			c-0.797,1.04-1.523,2.006-2.174,2.851c-0.314,0.434-0.629,0.821-0.918,1.208c-0.121,0.169-0.266,0.362-0.387,0.531
			c-0.266,0.338-0.508,0.629-0.701,0.894c-0.532,0.701-0.87,1.16-1.039,1.377c-12.296,16.5-25.969,33.748-45.971,36.96
			c1.063,0.268,2.211,0.532,3.334,0.532h49.281c0.386,0,0.772-0.006,1.159-0.024c6.28-0.292,10.704-2.529,14.688-7.513
			c0.024-0.048,0.072-0.097,0.096-0.144l6.595-8.603l1.691-2.196l27.709-36.188l51.044-66.698v23.143h36.187V46.729H143.542z"/>
	</defs>
	<clipPath id="SVGID_8_">
		<use xlink:href="#SVGID_7_"  overflow="visible"/>
	</clipPath>
	
		<linearGradient id="SVGID_9_" gradientUnits="userSpaceOnUse" x1="0" y1="230.0547" x2="1" y2="230.0547" gradientTransform="matrix(172.9698 -249.4328 -249.4328 -172.9698 57445.668 40029.1641)">
		<stop  offset="0" style="stop-color:#54BEFF"/>
		<stop  offset="1" style="stop-color:#1849FE"/>
	</linearGradient>
	<polygon clip-path="url(#SVGID_8_)" fill="url(#SVGID_9_)" points="-49.768,169.532 97.667,-43.078 312.332,105.782 
		164.897,318.392 	"/>
</g>
<g>
	<defs>
		<path id="SVGID_10_" d="M21.814,46.729H0v36.188h21.814v127.599c0,8.455,5.774,15.533,13.576,17.537
			c20.002-3.212,33.675-20.46,45.971-36.96c-0.652,0.846-1.787,1.305-2.826,1.305H61.408c-0.677,0-1.329-0.219-1.86-0.556
			c-0.218-0.145-0.435-0.313-0.604-0.507c-0.073-0.097-0.169-0.193-0.242-0.29c-0.435-0.556-0.701-1.28-0.701-2.053V82.917H68.92
			c0.508,0.025,1.04,0.025,1.595,0.025c15.074,0.313,40.1,2.44,55.272,13.237c0.241,0.169,0.482,0.363,0.724,0.532L94.455,54.75
			c-0.242-0.314-0.505-0.655-0.749-0.942c-4.15-4.879-8.626-6.824-14.301-7.054c-0.388-0.016-0.773-0.025-1.184-0.025h-20.22V1.411
			L21.814,46.729z"/>
	</defs>
	<clipPath id="SVGID_11_">
		<use xlink:href="#SVGID_10_"  overflow="visible"/>
	</clipPath>
	
		<linearGradient id="SVGID_12_" gradientUnits="userSpaceOnUse" x1="0" y1="230.0039" x2="1" y2="230.0039" gradientTransform="matrix(-6.1946 285.9858 285.9858 6.1946 -65712.25 -1408.9851)">
		<stop  offset="0" style="stop-color:#54BEFF"/>
		<stop  offset="1" style="stop-color:#1849FE"/>
	</linearGradient>
	<polygon clip-path="url(#SVGID_11_)" fill="url(#SVGID_12_)" points="131.418,1.517 126.452,230.792 -4.907,227.946 0.059,-1.328 	
		"/>
</g>
<g>
	<polygon fill="#FFFFFF" points="484.994,228.587 449.803,182.164 415.282,228.587 380.3,228.587 432.521,160.624 380.3,93.219 
		415.536,93.219 450.519,138.315 484.233,93.219 518.455,93.219 467.294,159.856 520.737,228.587 	"/>
	<path fill="#FFFFFF" d="M643.516,99.275c10.335,5.715,18.439,13.781,24.324,24.199c5.881,10.421,8.822,22.434,8.822,36.045
		c0,13.612-2.941,25.672-8.822,36.172c-5.885,10.505-13.989,18.614-24.324,24.325c-10.335,5.715-22.056,8.57-35.163,8.57
		c-9.244,0-17.688-1.599-25.333-4.79c-6.961-2.902-12.91-7.129-17.848-12.681c-0.503-0.565-1.436-0.207-1.436,0.55v12.789
		c0,2.282-1.851,4.132-4.132,4.132h-25.865V46.72h31.51v59.816c0,0.736,0.892,1.106,1.407,0.582
		c5.066-5.151,10.941-9.11,17.623-11.875c7.311-3.026,15.333-4.537,24.073-4.537C621.46,90.706,633.181,93.565,643.516,99.275
		 M633.433,190.021c7.476-7.728,11.217-17.896,11.217-30.501c0-12.604-3.741-22.769-11.217-30.5
		c-7.479-7.729-17.015-11.596-28.609-11.596c-7.563,0-14.368,1.726-20.418,5.168c-6.05,3.447-10.839,8.361-14.369,14.746
		c-3.527,6.389-5.292,13.781-5.292,22.182c0,8.404,1.765,15.798,5.292,22.182c3.53,6.389,8.319,11.305,14.369,14.748
		c6.05,3.445,12.855,5.166,20.418,5.166C616.418,201.615,625.953,197.751,633.433,190.021"/>
	<rect x="690.208" y="93.219" fill="#FFFFFF" width="31.509" height="135.368"/>
	<path fill="#FFFFFF" d="M367.296,202.618v25.971h-18.704c-14.785,0-26.205-3.861-34.274-11.599
		c-8.068-7.724-12.095-18.992-12.095-33.777v-64.781h-22.192V93.219h22.192v-46.5h31.501v46.5h33.572v25.212h-33.572v64.022
		c0,6.552,1.6,11.56,4.786,15.006c3.2,3.448,7.82,5.158,13.874,5.158H367.296z"/>
	<path fill="#FFFFFF" d="M800,202.618v25.971h-18.704c-14.785,0-26.205-3.861-34.274-11.599
		c-8.067-7.724-12.095-18.992-12.095-33.777v-64.781h-22.191V93.219h22.191v-46.5h31.501v46.5H800v25.212h-33.572v64.022
		c0,6.552,1.601,11.56,4.786,15.006c3.2,3.448,7.82,5.158,13.875,5.158H800z"/>
	<rect x="690.208" y="46.719" fill="#FFFFFF" width="31.509" height="31.509"/>
</g>
</svg>
